<svg width="70" height="74" viewBox="0 0 70 74" version="1.1" xmlns="http://www.w3.org/2000/svg" xmlns:xlink="http://www.w3.org/1999/xlink">
<title>Page 1</title>
<desc>Created using Figma</desc>
<g id="Canvas" transform="translate(-4748 -852)">
<g id="Page 1">
<g id="Fill 1">
<use xlink:href="#path0_fill" transform="translate(4760.55 876.688)" fill="#F2B01F"/>
</g>
<g id="Fill 3">
<use xlink:href="#path1_fill" transform="translate(4768.38 862.62)" fill="#25CE9E"/>
</g>
<g id="Fill 5">
<use xlink:href="#path2_fill" transform="translate(4756.88 862.62)" fill="#25CE9E"/>
</g>
<g id="Fill 7">
<use xlink:href="#path3_fill" transform="translate(4779.88 862.62)" fill="#25CE9E"/>
</g>
<g id="Fill 9">
<use xlink:href="#path4_fill" transform="translate(4800.49 862.62)" fill="#25CE9E"/>
</g>
<g id="Fill 11">
<use xlink:href="#path5_fill" transform="translate(4790.74 862.621)" fill="#25CE9E"/>
</g>
<g id="Fill 13">
<use xlink:href="#path6_fill" transform="translate(4803.85 880.965)" fill="#263357"/>
</g>
<g id="Fill 15">
<use xlink:href="#path7_fill" transform="translate(4815.34 883.62)" fill="#263357"/>
</g>
<g id="Fill 17">
<use xlink:href="#path8_fill" transform="translate(4753.79 876.476)" fill="#263357"/>
</g>
<g id="Fill 19">
<use xlink:href="#path9_fill" transform="translate(4794.47 917.815)" fill="#263357"/>
</g>
<g id="Fill 21">
<use xlink:href="#path10_fill" transform="translate(4805.21 886.758)" fill="#263357"/>
</g>
<g id="Fill 23">
<use xlink:href="#path11_fill" transform="translate(4762.88 909.448)" fill="#263357"/>
</g>
<g id="Fill 25">
<use xlink:href="#path12_fill" transform="translate(4748 897.543)" fill="#263357"/>
</g>
<g id="Fill 27">
<use xlink:href="#path13_fill" transform="translate(4752.83 852)" fill="#263357"/>
</g>
</g>
</g>
<defs>
<path id="path0_fill" fill-rule="evenodd" d="M 28.3092 7.17378L 18.2582 7.17378L 18.543 8.14895C 18.5768 8.14412 18.6154 8.13929 18.654 8.13929L 27.3437 8.13929C 27.8747 8.13929 28.3092 8.57378 28.3092 9.10481C 28.3092 9.63584 27.8747 10.0703 27.3437 10.0703L 19.0982 10.0703L 19.3782 11.0358L 26.3782 11.0358C 26.9092 11.0358 27.3437 11.4703 27.3437 12.0014C 27.3437 12.5324 26.9092 12.9669 26.3782 12.9669L 18.654 12.9669C 18.2244 12.9669 17.843 12.6821 17.7271 12.2717L 15.6899 5.24274L 12.5519 5.24274C 12.0209 5.24274 11.5864 4.80826 11.5864 4.27722C 11.5864 3.74619 12.0209 3.31171 12.5519 3.31171L 16.414 3.31171C 16.8437 3.31171 17.2202 3.59653 17.3409 4.00688L 17.6982 5.24274L 28.3092 5.24274C 28.8402 5.24274 29.2747 5.67722 29.2747 6.20826C 29.2747 6.73929 28.8402 7.17378 28.3092 7.17378ZM 25.4126 16.3462C 24.6113 16.3462 23.9644 15.6945 23.9644 14.8979C 23.9644 14.1014 24.6113 13.4496 25.4126 13.4496C 26.2092 13.4496 26.8609 14.1014 26.8609 14.8979C 26.8609 15.6945 26.2092 16.3462 25.4126 16.3462ZM 18.6538 16.3462C 17.8525 16.3462 17.2056 15.6945 17.2056 14.8979C 17.2056 14.1014 17.8525 13.4496 18.6538 13.4496C 19.4504 13.4496 20.1021 14.1014 20.1021 14.8979C 20.1021 15.6945 19.4504 16.3462 18.6538 16.3462ZM 34.8648 2.17241C 32.5476 2.45241 30.3172 1.80552 28.4924 0.376552C 28.3572 0.270345 28.2221 0.154483 28.0869 0.0386207C 26.5034 1.49655 24.4083 2.34621 22.2069 2.34621C 20.0055 2.34621 17.9103 1.49655 16.3269 0.0386207C 16.1917 0.154483 16.0566 0.270345 15.9214 0.376552C 14.0966 1.80552 11.8566 2.44276 9.54897 2.17241C 7.74345 1.95034 6.10207 1.18759 4.79862 0C 3.46621 1.17793 1.7669 1.93103 0 2.13379L 0 17.7172L 8.16828 20.691L 8.42897 20.691L 17.6786 20.691L 40.5517 20.691L 40.5517 0.724138C 40.2234 0.511724 39.9048 0.270345 39.6055 0.00965517C 38.3021 1.19724 36.6607 1.95034 34.8648 2.17241Z"/>
<path id="path1_fill" fill-rule="evenodd" d="M 0.014 7.92786C 0.131793 8.13738 0.170414 8.386 0.110069 8.63076C 0.535862 10.6429 2.1729 12.1588 4.2169 12.404C 4.9169 12.4875 5.6111 12.4112 6.26428 12.1964C 7.44172 11.2859 8.2711 9.92697 8.46179 8.34159L 8.58683 7.28966L 8.67952 6.72483L 8.58683 7.72414C 8.58683 8.48738 8.74034 9.21634 9.01165 9.88545C 9.28297 9.37469 9.464 8.81614 9.53448 8.22669L 9.5649 7.97372C 9.562 7.89021 9.55235 7.80814 9.55235 7.72414L 9.55669 7.63531L 10.2649 0L 2.66966 0L 0.0178621 7.19359C -0.00724138 7.45186 -0.00337931 7.69421 0.014 7.92786Z"/>
<path id="path2_fill" fill-rule="evenodd" d="M 6.18105 12.2172C 7.22187 11.439 8.00974 10.3112 8.33898 8.96L 8.55767 8.40434C 8.63201 8.95759 8.79036 9.48862 9.01436 9.98683C 9.23498 9.60207 9.40877 9.18303 9.51884 8.73117C 9.52946 8.68772 9.54298 8.64572 9.55939 8.60421L 9.62456 8.43959C 9.55311 7.96166 9.54684 7.42097 9.61443 6.85662L 9.62794 6.74366L 12.1142 0L 4.61353 0L 0.100219 6.61041C -0.423574 9.14248 1.15505 11.6634 3.68567 12.2799C 4.5387 12.4875 5.39367 12.4489 6.18105 12.2172Z"/>
<path id="path3_fill" fill-rule="evenodd" d="M 0.0724138 7.42966L 0 8.04759C 0.168966 10.5579 2.25448 12.5517 4.80828 12.5517C 5.39724 12.5517 5.95724 12.4407 6.47862 12.2476C 7.81103 11.1812 8.67034 9.54945 8.67034 7.72414L 8.67034 7.55034L 8.79586 8.34255C 8.85862 8.84897 8.98897 9.32738 9.16759 9.78069C 9.4669 9.1531 9.63586 8.45793 9.63586 7.72414L 9.63586 7.33841L 9.15793 2.43793L 8.94552 0.246207C 8.50621 0.690345 7.8931 0.965517 7.22207 0.965517C 6.43517 0.965517 5.73035 0.584138 5.29103 0L 2.39448 0C 1.97931 0.550345 1.34207 0.917724 0.613103 0.956345L 0.429655 2.89655L 0.0627586 6.87497L 0.164138 6.89428L 0.0724138 7.42966Z"/>
<path id="path4_fill" fill-rule="evenodd" d="M 11.0706 6.21793L 6.82524 0L 0 0L 2.48572 6.74317L 2.49972 6.85566C 2.54269 7.21821 2.55331 7.57062 2.53786 7.91145C 2.56248 7.95393 2.58759 7.9969 2.60641 8.04372L 2.82848 8.60372C 2.84441 8.64524 2.85841 8.68772 2.86903 8.73117C 3.49903 11.3168 6.11752 12.9099 8.70269 12.2799C 8.77703 12.2621 8.84752 12.2365 8.91945 12.2152C 10.7061 10.863 11.6321 8.52745 11.0706 6.21793Z"/>
<path id="path5_fill" fill-rule="evenodd" d="M 10.3455 7.1931L 7.69517 0L 5.05448 0C 4.61517 0.584138 3.91034 0.965517 3.12345 0.965517C 2.33655 0.965517 1.63172 0.584138 1.19241 0L 0 0L 0.0772414 0.801379L 0.168966 1.73262L 0.709655 7.28917L 0.709655 7.4731L 0.825517 8.19193C 1.14414 10.8428 3.52897 12.7154 6.14552 12.4021C 6.51724 12.3581 6.87931 12.2717 7.21724 12.1462C 8.36138 11.2285 9.14345 9.89172 9.34621 8.40483L 9.56345 8.95952C 9.63586 9.25448 9.73241 9.53448 9.84828 9.80435C 10.0848 9.33607 10.2441 8.81952 10.3166 8.274C 10.3745 7.92207 10.3841 7.56917 10.3455 7.1931Z"/>
<path id="path6_fill" fill-rule="evenodd" d="M 1.93103 0C 0.864621 0 0 0.864138 0 1.93103C 0 2.99745 0.864621 3.86207 1.93103 3.86207C 2.99745 3.86207 3.86207 2.99745 3.86207 1.93103C 3.86207 0.864138 2.99745 0 1.93103 0Z"/>
<path id="path7_fill" fill-rule="evenodd" d="M 1.2069 2.41379C 1.87214 2.41379 2.41379 1.87262 2.41379 1.2069C 2.41379 0.541172 1.87214 0 1.2069 0C 0.541655 0 0 0.541172 0 1.2069C 0 1.87262 0.541655 2.41379 1.2069 2.41379Z"/>
<path id="path8_fill" fill-rule="evenodd" d="M 47.512 26.5121C 47.3454 27.9421 47.0307 29.2822 46.5228 30.7305C 46.2409 31.5333 45.9363 32.27 45.6413 32.9825C 45.0456 34.4226 44.4827 35.799 44.3026 37.3172L 21.9258 37.3172C 21.6743 37.1203 21.4184 36.9219 21.1471 36.7186C 20.0947 35.9269 19.525 35.574 19.1485 35.3427C 18.7719 35.1062 18.6464 35.029 18.323 34.6905C 17.6905 34.0296 17.2464 33.3007 16.6864 32.3781C 16.1457 31.4903 15.4698 30.3843 14.4319 29.0234C 14.1664 28.6561 13.8526 28.2703 13.5774 27.9319C 10.6809 24.4372 7.00709 22.4096 2.07812 21.6034C 2.14571 21.3717 2.23261 21.154 2.33881 20.9565C 2.39192 20.8455 2.45468 20.7441 2.52226 20.6427C 2.86019 20.16 3.30433 19.8221 3.78226 19.585C 4.58364 19.18 5.4864 19.0545 6.17675 18.9531C 8.30088 18.6634 10.2657 19.2572 11.8347 20.0538C 12.9064 20.5945 13.7898 21.2269 14.4174 21.7338C 14.6878 21.9462 15.045 22.0041 15.3636 21.8834C 18.5305 20.6959 22.3974 20.4492 25.2988 21.9848C 26.2885 22.5009 27.1671 23.2303 27.8671 24.2007C 28.1761 24.6303 28.7795 24.7317 29.214 24.4179C 29.6436 24.1085 29.745 23.505 29.4312 23.071C 29.1464 22.6752 28.8423 22.3179 28.514 21.9848L 47.6578 21.9848C 47.6558 23.4674 47.5998 25.7566 47.512 26.5121ZM 57.9332 16.4331L 57.9332 0.965517C 57.9332 0.429655 57.4987 0 56.9676 0C 56.4366 0 56.0021 0.429655 56.0021 0.965517L 56.0021 16.4331C 56.0021 18.4317 54.3801 20.0538 52.3814 20.0538L 48.6203 20.0538C 48.6077 20.0538 48.5961 20.0514 48.5831 20.0519C 48.5783 20.0519 48.5744 20.0533 48.5696 20.0538L 25.7573 20.0538C 22.5566 18.5717 18.569 18.7552 15.1994 19.8945C 13.2973 18.4559 9.8842 16.4959 5.89179 17.0414C 5.01799 17.1669 3.61317 17.3697 2.3773 18.1614C 2.09248 17.6497 1.93317 17.0607 1.93317 16.4331L 1.93317 0.965517C 1.93317 0.429655 1.49868 0 0.967649 0C 0.436615 0 0.00213204 0.429655 0.00213204 0.965517L 0.00213204 16.4331C 0.00213204 17.5772 0.349718 18.6441 0.948339 19.5276C 0.943511 19.5324 0.938684 19.5421 0.933856 19.5469C 0.388339 20.3478 0.0745458 21.294 0.00213204 22.3566C -0.0316611 22.863 0.340063 23.3124 0.84696 23.3752C 5.82903 24.0076 9.29523 25.7938 12.0856 29.1581C 12.4042 29.5497 12.6601 29.8683 12.887 30.1772C 13.8718 31.4759 14.4945 32.4897 15.0401 33.3876C 15.6339 34.3671 16.1504 35.2119 16.9228 36.0234C 17.4201 36.5395 17.7001 36.7186 18.1297 36.9837C 18.277 37.0739 18.4469 37.1792 18.6569 37.3172L 18.4676 37.3172C 17.9342 37.3172 17.5021 37.7493 17.5021 38.2828L 17.5021 48.1701C 17.5021 48.7036 17.9342 49.1357 18.4676 49.1357C 19.0006 49.1357 19.4332 48.7036 19.4332 48.1701L 19.4332 39.2483L 45.2004 39.2483L 45.2028 39.2483L 46.4676 39.2483L 46.4676 41.7046C 46.4676 42.2375 46.8997 42.6701 47.4332 42.6701C 47.9661 42.6701 48.3987 42.2375 48.3987 41.7046L 48.3987 38.2828C 48.3987 37.7493 47.9661 37.3172 47.4332 37.3172L 46.2494 37.3172C 46.4285 36.1412 46.8963 34.9995 47.4254 33.7212C 47.7305 32.9845 48.0453 32.2227 48.3446 31.3701C 48.9012 29.7838 49.2464 28.3114 49.4299 26.7357C 49.5254 25.9116 49.5863 23.5403 49.5882 21.9848L 52.3814 21.9848C 55.4421 21.9848 57.9332 19.4938 57.9332 16.4331Z"/>
<path id="path9_fill" fill-rule="evenodd" d="M 2.29547 0.0546928C 1.3034 -0.191031 0.300232 0.414348 0.0545077 1.4069C -0.190734 2.39849 0.414646 3.40214 1.40671 3.64738C 2.39878 3.89262 3.40196 3.28773 3.6472 2.29566C 3.89292 1.30359 3.28754 0.300417 2.29547 0.0546928Z"/>
<path id="path10_fill" fill-rule="evenodd" d="M 11.3448 0C 10.8119 0 10.3793 0.432552 10.3793 0.965517L 10.3793 6.15034C 10.3793 11.341 6.15614 15.5641 0.965517 15.5641C 0.432552 15.5641 0 15.9967 0 16.5297C 0 17.0631 0.432552 17.4952 0.965517 17.4952C 7.2211 17.4952 12.3103 12.4059 12.3103 6.15034L 12.3103 0.965517C 12.3103 0.432552 11.8778 0 11.3448 0Z"/>
<path id="path11_fill" fill-rule="evenodd" d="M 1.2069 0C 0.541655 0 0 0.541172 0 1.2069C 0 1.87262 0.541655 2.41379 1.2069 2.41379C 1.87214 2.41379 2.41379 1.87262 2.41379 1.2069C 2.41379 0.541172 1.87214 0 1.2069 0Z"/>
<path id="path12_fill" fill-rule="evenodd" d="M 14.877 10.5259C 13.3756 8.7146 11.1645 6.77681 6.15109 6.14101C 3.62047 5.82046 1.77199 3.57564 1.94192 1.03101C 1.97765 0.498532 1.57503 0.038463 1.04303 0.00322159C 0.508129 -0.0407094 0.0509562 0.370118 0.015232 0.901635C -0.223251 4.46439 2.3653 7.60764 5.90778 8.05708C 10.243 8.60646 12.0659 10.1609 13.3905 11.7584C 13.5812 11.9887 13.8569 12.1074 14.134 12.1074C 14.3512 12.1074 14.5699 12.035 14.75 11.8854C 15.1603 11.545 15.2173 10.9367 14.877 10.5259Z"/>
<path id="path13_fill" fill-rule="evenodd" d="M 2.03244 17.2296L 6.54623 10.6207L 14.1304 10.6207L 11.6442 17.3643L 11.6442 17.3793L 2.0083 17.3793C 2.01796 17.331 2.02278 17.2823 2.03244 17.2296ZM 23.4234 10.6207C 23.5243 10.9055 23.6561 11.1758 23.8115 11.4303L 23.2689 17.2779L 23.2496 17.3793L 13.6958 17.3793L 16.1868 10.6207L 23.4234 10.6207ZM 18.3447 4.34482C 18.3447 3.01386 19.4276 1.93103 20.7585 1.93103C 22.0895 1.93103 23.1723 3.01386 23.1723 4.34482L 23.1723 8.20689C 23.1723 8.37296 23.1496 8.53275 23.1163 8.68965L 18.4007 8.68965C 18.3674 8.53275 18.3447 8.37296 18.3447 8.20689L 18.3447 4.34482ZM 21.2562 22.0326C 20.2472 22.8248 18.9969 23.1768 17.7369 23.0228C 15.7141 22.7814 14.0872 21.2945 13.6431 19.3104L 22.9748 19.3104C 22.7382 20.3816 22.1396 21.3379 21.2562 22.0326ZM 11.4512 19.3533C 10.8188 21.9366 8.20227 23.5297 5.61468 22.9021C 3.79468 22.4575 2.47192 21.0237 2.06641 19.3104L 11.4609 19.3104C 11.4609 19.3248 11.4512 19.3388 11.4512 19.3533ZM 25.1035 8.20688C 25.1035 6.87447 26.1849 5.79309 27.5173 5.79309C 28.8497 5.79309 29.9311 6.87447 29.9311 8.20688L 29.9311 9.1724C 29.9311 9.71744 29.7525 10.2195 29.4483 10.6207C 29.0332 11.1705 28.3959 11.5379 27.667 11.5765C 27.6187 11.5862 27.5656 11.5862 27.5173 11.5862C 26.8463 11.5862 26.2332 11.3105 25.7939 10.8664C 25.7214 10.7892 25.649 10.7071 25.5863 10.6207C 25.2821 10.2195 25.1035 9.71744 25.1035 9.1724L 25.1035 8.20688ZM 30.8967 11.8947C 31.6932 12.8849 32.9098 13.5173 34.276 13.5173C 34.2929 13.5173 34.3093 13.5144 34.3262 13.5144L 34.7008 17.3793L 25.1953 17.3793L 25.5984 13.0664C 26.171 13.3493 26.8058 13.5124 27.4836 13.5173L 27.5174 13.5173C 28.8836 13.5173 30.1001 12.8849 30.8967 11.8947ZM 31.8623 8.20688C 31.8623 6.87447 32.9437 5.79309 34.2761 5.79309C 35.6085 5.79309 36.6899 6.87447 36.6899 8.20688L 36.6899 9.1724C 36.6899 9.83378 36.4244 10.4271 35.9995 10.8664C 35.5602 11.3105 34.9471 11.5862 34.2761 11.5862C 33.4892 11.5862 32.7844 11.2048 32.3451 10.6207C 32.0409 10.2195 31.8623 9.71744 31.8623 9.1724L 31.8623 8.20688ZM 37.6554 11.8947C 37.7858 12.0593 37.9258 12.2133 38.0803 12.3533C 38.8575 13.0775 39.8954 13.5173 41.0347 13.5173C 42.2947 13.5173 43.4302 12.9751 44.2238 12.1149L 46.1665 17.3793L 36.6368 17.3793L 36.2178 13.0553C 36.7754 12.7753 37.2658 12.3809 37.6554 11.8947ZM 38.6206 8.20688C 38.6206 6.87447 39.702 5.79309 41.0344 5.79309C 42.3668 5.79309 43.4482 6.87447 43.4482 8.20688L 43.4482 9.1724C 43.4482 9.71744 43.2696 10.2195 42.9654 10.6207C 42.5261 11.2048 41.8213 11.5862 41.0344 11.5862C 40.2475 11.5862 39.5427 11.2048 39.1034 10.6207C 38.7992 10.2195 38.6206 9.71744 38.6206 9.1724L 38.6206 8.20688ZM 53.3161 10.6207L 57.8299 17.2296C 57.8395 17.2823 57.8443 17.331 57.854 17.3793L 48.2181 17.3793L 48.2181 17.3643L 45.7319 10.6207L 53.3161 10.6207ZM 54.2476 22.9021C 51.66 23.5297 49.0434 21.9366 48.411 19.3533C 48.411 19.3388 48.4014 19.3248 48.4014 19.3104L 57.7958 19.3104C 57.3903 21.0237 56.0676 22.4575 54.2476 22.9021ZM 42.1256 23.0228C 39.6732 23.3168 37.4284 21.6952 36.8877 19.3104L 46.2242 19.3104C 45.7898 21.28 44.158 22.7814 42.1256 23.0228ZM 29.9313 23.1724C 27.5996 23.1724 25.654 21.5113 25.2051 19.3104L 34.6623 19.3104C 34.2134 21.5113 32.263 23.1724 29.9313 23.1724ZM 5.16081 24.7752C 5.69185 24.905 6.22771 24.9678 6.75391 24.9678C 9.12426 24.9678 11.3208 23.7131 12.5374 21.7048C 13.5753 23.4568 15.3856 24.6878 17.5049 24.9437C 17.7753 24.9731 18.0456 24.9919 18.3112 24.9919C 20.7153 24.9919 22.8877 23.6938 24.0705 21.7C 25.2387 23.7324 27.4256 25.1034 29.9312 25.1034C 32.4367 25.1034 34.6236 23.7324 35.7918 21.7C 36.9746 23.6938 39.147 24.9919 41.5512 24.9919C 41.8167 24.9919 42.087 24.9731 42.3574 24.9437C 44.4815 24.6878 46.287 23.4524 47.3249 21.7145C 48.8167 24.1616 51.7712 25.4848 54.7015 24.7752C 58.3222 23.8966 60.5525 20.2324 59.6691 16.6117C 59.6449 16.4954 59.5967 16.3897 59.5291 16.2931L 54.6243 9.10966C 54.4456 8.84897 54.1463 8.68966 53.8277 8.68966L 45.3794 8.68966L 45.3794 8.2069C 45.3794 5.81241 43.4291 3.86207 41.0346 3.86207C 39.6684 3.86207 38.4518 4.494 37.6553 5.48414C 36.8587 4.494 35.6422 3.86207 34.276 3.86207C 32.9098 3.86207 31.6932 4.494 30.8967 5.48414C 30.1001 4.494 28.8836 3.86207 27.5174 3.86207C 26.6247 3.86207 25.7949 4.13338 25.1036 4.59731L 25.1036 4.34483C 25.1036 1.9489 23.1542 0 20.7587 0C 18.3633 0 16.4139 1.9489 16.4139 4.34483L 16.4139 8.2069C 16.4139 8.37007 16.4265 8.53034 16.4448 8.68966L 6.0346 8.68966C 5.71598 8.68966 5.41667 8.84897 5.23805 9.10966L 0.333225 16.2931C 0.265638 16.3897 0.217363 16.4954 0.193225 16.6117C -0.690224 20.2324 1.54012 23.8966 5.16081 24.7752Z"/>
</defs>
</svg>
