<svg width="80" height="55" viewBox="0 0 80 55" version="1.1" xmlns="http://www.w3.org/2000/svg" xmlns:xlink="http://www.w3.org/1999/xlink">
<title>Page 1</title>
<desc>Created using Figma</desc>
<g id="Canvas" transform="translate(-4750 -1071)">
<g id="Page 1">
<g id="Group 16">
<g id="Fill 1">
<use xlink:href="#path0_fill" transform="translate(4754.32 1073.7)" fill="#D5EDEA"/>
</g>
<g id="Group 5">
<g id="Fill 3">
<use xlink:href="#path1_fill" transform="translate(4753.6 1072.45)" fill="#263357"/>
</g>
</g>
<g id="Fill 6">
<use xlink:href="#path2_fill" transform="translate(4801.7 1081.35)" fill="#A1C4C2"/>
</g>
<g id="Fill 8">
<use xlink:href="#path3_fill" transform="translate(4780.08 1113.19)" fill="#A1C4C2"/>
</g>
<g id="Fill 10">
<use xlink:href="#path4_fill" transform="translate(4766.72 1089.53)" fill="#263357"/>
</g>
<g id="Fill 12">
<use xlink:href="#path5_fill" transform="translate(4783.21 1113.18)" fill="#A1C4C2"/>
</g>
</g>
<g id="Group 38">
<g id="Group 19">
<mask id="mask0_outline" mask-type="alpha">
<g id="Clip 18">
<use xlink:href="#path6_fill" transform="translate(4787.18 1067.44)" fill="#FFFFFF"/>
</g>
</mask>
<g id="Fill 17" mask="url(#mask0_outline)">
<use xlink:href="#path7_fill" transform="translate(4789.63 1072.48)" fill="#FABF4D"/>
</g>
</g>
<g id="Group 22">
<mask id="mask1_outline" mask-type="alpha">
<g id="Clip 21">
<use xlink:href="#path6_fill" transform="translate(4787.18 1067.44)" fill="#FFFFFF"/>
</g>
</mask>
<g id="Fill 20" mask="url(#mask1_outline)">
<use xlink:href="#path8_fill" transform="translate(4788.62 1071.47)" fill="#263357"/>
</g>
</g>
<g id="Group 25">
<mask id="mask2_outline" mask-type="alpha">
<g id="Clip 24">
<use xlink:href="#path6_fill" transform="translate(4787.18 1067.44)" fill="#FFFFFF"/>
</g>
</mask>
<g id="Fill 23" mask="url(#mask2_outline)">
<use xlink:href="#path9_fill" transform="translate(4790.91 1073.75)" fill="#F2B01F"/>
</g>
</g>
<g id="Group 28">
<mask id="mask3_outline" mask-type="alpha">
<g id="Clip 27">
<use xlink:href="#path6_fill" transform="translate(4787.18 1067.44)" fill="#FFFFFF"/>
</g>
</mask>
<g id="Fill 26" mask="url(#mask3_outline)">
<use xlink:href="#path10_fill" transform="translate(4789.63 1072.48)" fill="#263357"/>
</g>
</g>
<g id="Group 31">
<mask id="mask4_outline" mask-type="alpha">
<g id="Clip 30">
<use xlink:href="#path6_fill" transform="translate(4787.18 1067.44)" fill="#FFFFFF"/>
</g>
</mask>
<g id="Fill 29" mask="url(#mask4_outline)">
<use xlink:href="#path11_fill" transform="translate(4793.46 1076.31)" fill="#F2B01F"/>
</g>
</g>
<g id="Group 34">
<mask id="mask5_outline" mask-type="alpha">
<g id="Clip 33">
<use xlink:href="#path6_fill" transform="translate(4787.18 1067.44)" fill="#FFFFFF"/>
</g>
</mask>
<g id="Fill 32" mask="url(#mask5_outline)">
<use xlink:href="#path12_fill" transform="translate(4792.46 1075.3)" fill="#263357"/>
</g>
</g>
<g id="Group 37">
<mask id="mask6_outline" mask-type="alpha">
<g id="Clip 36">
<use xlink:href="#path6_fill" transform="translate(4787.18 1067.44)" fill="#FFFFFF"/>
</g>
</mask>
<g id="Fill 35" mask="url(#mask6_outline)">
<use xlink:href="#path13_fill" transform="translate(4799.44 1080.29)" fill="#263357"/>
</g>
</g>
</g>
<g id="Group 54">
<g id="Fill 39">
<use xlink:href="#path14_fill" transform="translate(4786.66 1083.84)" fill="#263357"/>
</g>
<g id="Fill 41">
<use xlink:href="#path15_fill" transform="translate(4801.95 1104.97)" fill="#263357"/>
</g>
<g id="Fill 43">
<use xlink:href="#path16_fill" transform="translate(4817.64 1091.97)" fill="#263357"/>
</g>
<g id="Group 47">
<mask id="mask7_outline" mask-type="alpha">
<g id="Clip 46">
<use xlink:href="#path17_fill" transform="translate(4825.37 1098.85)" fill="#FFFFFF"/>
</g>
</mask>
<g id="Fill 45" mask="url(#mask7_outline)">
<use xlink:href="#path18_fill" transform="translate(4825.37 1098.85)" fill="#263357"/>
</g>
</g>
<g id="Fill 48">
<use xlink:href="#path19_fill" transform="translate(4770.33 1074.4)" fill="#A1C4C2"/>
</g>
<g id="Fill 50">
<use xlink:href="#path20_fill" transform="translate(4750.72 1093.37)" fill="#A1C4C2"/>
</g>
<g id="Fill 52">
<use xlink:href="#path21_fill" transform="translate(4750 1091.93)" fill="#263357"/>
</g>
<g id="Fill 53">
<use xlink:href="#path22_fill" transform="translate(4769.53 1073.46)" fill="#263357"/>
</g>
</g>
</g>
</g>
<defs>
<path id="path0_fill" fill-rule="evenodd" d="M 45.7578 6.69717L 27.3459 6.69717C 26.9846 2.37366 23.0593 -0.328322 17.1143 0.0321171C 16.4923 0.0699193 15.8536 -0.0610697 15.1327 0.0883809L 15.1327 7.55519C 10.8092 9.22948 7.86725 11.5011 5.49143 16.6972C 5.00484 17.7609 4.86637 17.982 4.05363 18.8572C 2.88264 20.1183 1.21626 19.9381 1.21626 19.9381L 0 20.0282L 0 31.9183L 1.98198 31.9183C 1.98198 31.9183 3.51341 31.9183 4.77451 32.7288C 5.75077 33.3561 6.11077 33.7644 6.72044 34.7341C 8.86462 38.1473 12.1218 40.7438 15.9829 42.1064C 16.9829 42.4594 17.7451 43.1099 18.1055 43.6501C 18.4185 44.1205 19.0062 45.1701 19.0963 46.0708C 19.1473 46.5846 19.0963 48.313 19.0963 48.313C 19.0963 49.509 20.0659 50.6532 21.262 50.6532L 27.7389 50.6532C 28.9354 50.6532 29.5446 49.3235 29.5446 48.1271L 29.5446 43.4475L 41.0743 43.4475L 41.0743 48.1271C 41.0743 49.3235 42.404 50.6532 43.6004 50.6532L 50.0769 50.6532C 51.2734 50.6532 52.2431 49.5038 52.2431 48.3073C 52.2431 48.3073 52.5024 46.5319 52.5134 46.0598C 52.5169 45.8981 52.7833 44.3033 53.2343 43.2224C 53.6558 42.2106 54.4712 41.2409 55.396 40.6778C 60.5846 37.5165 63.4123 31.593 63.4123 25.0726L 63.4123 24.3517C 63.4123 14.4027 55.7068 6.69717 45.7578 6.69717Z"/>
<path id="path1_fill" fill-rule="evenodd" d="M 30.6249 43.2628L 42.1541 43.2628C 42.7511 43.2628 43.235 43.7472 43.235 44.3437L 43.235 49.3837C 43.235 49.982 43.7225 50.469 44.3203 50.469L 50.7972 50.469C 51.3955 50.469 51.8821 49.982 51.8821 49.3837C 51.8821 49.3288 51.8865 49.2738 51.8952 49.2198C 51.9977 48.5481 52.1462 47.4782 52.1528 47.2C 52.1594 46.8835 52.4654 45.1973 52.9563 44.018C 53.424 42.8954 54.4618 41.7626 55.7335 40.9886C 60.5414 38.0598 63.4117 32.5798 63.4117 26.3292L 63.4117 25.6083C 63.4117 16.2712 55.8157 8.67471 46.4777 8.67471L 28.0662 8.67471C 27.5102 8.67471 27.0456 8.25317 26.9906 7.70064C 26.7256 5.03295 24.0869 2.16174 18.919 2.16174C 18.6443 2.16174 18.3656 2.17053 18.0799 2.18724C 17.821 2.2035 17.5559 2.22108 17.2939 2.25053L 17.2939 8.81185C 17.2939 9.25889 17.0196 9.65933 16.6029 9.8202C 12.7357 11.3147 9.68602 13.3464 7.37437 18.4031C 6.83723 19.5784 6.52162 19.9178 5.75986 20.7376L 5.65613 20.8492C 4.45305 22.145 2.95547 22.3279 2.36777 22.3279C 2.28602 22.3279 2.21788 22.3657 2.16514 22.3657L 2.16162 22.3657L 2.16162 31.7336L 2.70228 31.7336C 2.74404 31.7336 2.78668 31.7362 2.82799 31.7411C 2.9014 31.7499 4.62492 31.9609 6.07898 32.8958C 7.25085 33.6488 7.72118 34.316 8.35547 35.3248C 10.3867 38.5578 13.4785 41.0338 17.0627 42.2989C 18.3528 42.7543 19.2838 43.6233 19.7247 44.2848C 19.8966 44.5428 20.7607 45.8962 20.8913 47.2088C 20.9476 47.7657 20.9054 49.1481 20.8961 49.4198C 20.897 49.982 21.384 50.469 21.9823 50.469L 28.4588 50.469C 29.0574 50.469 29.544 49.982 29.544 49.3837L 29.544 44.3437C 29.544 43.7472 30.0284 43.2628 30.6249 43.2628ZM 50.7974 52.6308L 44.3204 52.6308C 42.5301 52.6308 41.0738 51.1741 41.0738 49.3837L 41.0738 45.4246L 31.7059 45.4246L 31.7059 49.3837C 31.7059 51.1741 30.2497 52.6308 28.4589 52.6308L 21.9824 52.6308C 20.1921 52.6308 18.7354 51.1741 18.7354 49.3837C 18.7565 48.7319 18.771 47.7288 18.7411 47.4242C 18.6791 46.8048 18.2193 45.9244 17.9262 45.484C 17.6712 45.1011 17.0822 44.5987 16.3429 44.3367C 12.3011 42.9108 8.81451 40.1191 6.52571 36.476C 5.94813 35.5591 5.69582 35.2198 4.91033 34.7143C 4.00352 34.1319 2.87956 33.9336 2.62769 33.8949L 1.08088 33.8949C 0.484396 33.8949 0 33.411 0 32.8141L 0 21.2848C 0 20.7226 0.430769 20.2545 0.990769 20.2075L 2.07165 20.1178C 2.14418 20.1125 2.21582 20.1134 2.28747 20.1218C 2.28747 20.1213 2.28835 20.1213 2.28835 20.1213C 2.29275 20.1213 2.3244 20.1231 2.36791 20.1231C 2.67253 20.1231 3.44835 20.0506 4.07165 19.3785L 4.17714 19.2651C 4.87165 18.5178 5.0167 18.3626 5.40879 17.5046C 8.00967 11.8154 11.5829 9.54286 15.1323 8.07912L 15.1323 1.34505C 15.1323 0.852308 15.4659 0.421538 15.9433 0.298462C 16.6264 0.121758 17.309 0.0681319 17.9486 0.0298901C 18.2791 0.00923077 18.6013 0 18.9191 0C 24.8475 0 28.1574 3.21626 28.9732 6.51297L 46.4778 6.51297C 57.0079 6.51297 65.5736 15.0791 65.5736 25.6084L 65.5736 26.3292C 65.5736 33.3402 62.3156 39.5108 56.8585 42.8352C 56.0031 43.356 55.2369 44.1653 54.9521 44.8497C 54.5754 45.7534 54.3332 47.0945 54.3116 47.2998C 54.3024 47.7367 54.1055 49.0607 54.0426 49.4738C 53.9952 51.2224 52.5574 52.6308 50.7974 52.6308Z"/>
<path id="path2_fill" fill-rule="evenodd" d="M 7.64044 32.091C 12.4484 29.1622 15.3187 23.6818 15.3187 17.4312L 15.3187 16.7108C 15.3187 8.30901 9.16835 1.31648 1.13319 0C 7.00923 3.25934 13.1569 9.52879 13.1569 16.7108L 13.1569 17.4312C 13.1569 24.4418 9.48659 29.1191 4.02901 32.4444C 3.17363 32.9648 1.37934 35.2681 1.09407 35.9512C 0.717802 36.8558 0.474725 38.1969 0.453626 38.4018C 0.444835 38.8391 0.248352 40.1631 0.185055 40.5763C 0.175824 40.924 0.110769 41.2585 0 41.571L 2.70418 41.571C 3.30242 41.571 3.78901 41.0844 3.78901 40.4862C 3.78901 40.4312 3.79341 40.3763 3.8022 40.3218C 3.90462 39.6501 4.05319 38.5807 4.05978 38.3033C 4.06637 37.9851 4.37187 36.3002 4.8633 35.1204C 5.33055 33.9978 6.36879 32.8664 7.64044 32.091Z"/>
<path id="path3_fill" fill-rule="evenodd" d="M 5.11033 0C 5.11033 0 2.10813 0.720879 0.667253 4.08264C 0.277363 4.99341 0.186374 8.64264 0.186374 8.64264C 0.186374 9.02286 0.120879 9.38857 0 9.72791L 1.98374 9.72791C 2.58198 9.72791 3.06857 9.24088 3.06857 8.64264L 3.06857 3.96352L 5.11033 0Z"/>
<path id="path4_fill" fill-rule="evenodd" d="M 4.40747 2.2044C 4.40747 3.42198 3.42022 4.40835 2.20396 4.40835C 0.986813 4.40835 0 3.42198 0 2.2044C 0 0.986813 0.986813 0 2.20396 0C 3.42022 0 4.40747 0.986813 4.40747 2.2044Z"/>
<path id="path5_fill" fill-rule="evenodd" d="M 1.04909 4.99905C 0.591508 4.99905 0.177003 4.68608 0.0679919 4.22147C 0.0433765 4.11729 -0.502558 1.66366 1.96426 0.148499C 2.43942 -0.141171 3.06008 0.00520214 3.35195 0.480807C 3.64338 0.955971 3.49481 1.57619 3.01964 1.8685C 1.7814 2.62806 2.02887 3.74718 2.03107 3.75861C 2.15942 4.30103 1.82316 4.84432 1.28118 4.9718C 1.20338 4.98982 1.12557 4.99905 1.04909 4.99905Z"/>
<path id="path6_fill" fill-rule="evenodd" d="M 5.81592 3.59429C -2.35068 8.63824 0.471302 18.0062 0.471302 18.0062C 0.471302 18.0062 6.59614 16.7455 14.5227 18.9068C 23.9794 21.4862 26.8062 28.8396 26.8054 29.7947C 27.7632 28.5385 40.1535 16.2035 26.052 5.0356C 21.3148 1.28352 17.7408 0 14.7944 0C 11.1891 0 8.52405 1.92176 5.81592 3.59429ZM 26.7728 29.8962C 26.7939 29.8892 26.8049 29.854 26.8053 29.7947C 26.7433 29.876 26.7293 29.9107 26.7728 29.8962Z"/>
<path id="path7_fill" fill-rule="evenodd" d="M 26.662 13.331C 26.662 20.6927 20.6936 26.6615 13.331 26.6615C 5.96791 26.6615 0 20.6927 0 13.331C 0 5.96879 5.96791 0 13.331 0C 20.6936 0 26.662 5.96879 26.662 13.331Z"/>
<path id="path8_fill" fill-rule="evenodd" d="M 14.3403 2.01843C 7.54603 2.01843 2.01855 7.54591 2.01855 14.3402C 2.01855 21.134 7.54603 26.6619 14.3403 26.6619C 21.1346 26.6619 26.6621 21.134 26.6621 14.3402C 26.6621 7.54591 21.1346 2.01843 14.3403 2.01843ZM 14.3402 28.68C 6.43341 28.68 0 22.247 0 14.3402C 0 6.43341 6.43341 0 14.3402 0C 22.247 0 28.68 6.43341 28.68 14.3402C 28.68 22.247 22.247 28.68 14.3402 28.68Z"/>
<path id="path9_fill" fill-rule="evenodd" d="M 24.3846 12.1925C 24.3846 18.9253 18.9266 24.3846 12.1925 24.3846C 5.45714 24.3846 0 18.9253 0 12.1925C 0 5.45714 5.45714 0 12.1925 0C 18.9266 0 24.3846 5.45714 24.3846 12.1925Z"/>
<path id="path10_fill" fill-rule="evenodd" d="M 15.3769 2.44747C 14.7492 2.34022 14.1075 2.15165 13.4692 2.15165L 13.4297 0L 13.4692 0C 14.2209 0 14.9774 0.198242 15.7158 0.324835L 15.3769 2.44747ZM 7.85122 3.79698L 6.83496 2.05324C 7.4987 1.66731 8.19892 1.33764 8.9176 1.07434L 9.61123 2.96885C 9.00463 3.19082 8.4121 3.46951 7.85122 3.79698ZM 20.627 4.87472C 20.1276 4.45846 19.5896 4.08439 19.0278 3.76176L 20.0309 2.01099C 20.6946 2.39165 21.3298 2.83428 21.9193 3.32527L 20.627 4.87472ZM 3.76849 7.90022L 2.01904 6.89538C 2.3997 6.23296 2.8419 5.59824 3.33509 5.00879L 4.88322 6.30242C 4.46608 6.8022 4.09069 7.34022 3.76849 7.90022ZM 23.9651 9.5996C 23.7427 8.99389 23.4632 8.40136 23.1353 7.84004L 24.8777 6.82202C 25.2654 7.48664 25.5955 8.18598 25.8596 8.90334L 23.9651 9.5996ZM 0 13.4954L 0 13.4694C 0 12.7103 0.2 11.9486 0.327912 11.207L 2.3833 11.5503C 2.27429 12.1798 2.11868 12.8246 2.11868 13.4694L 0 13.4954ZM 26.4671 15.7592L 24.4829 15.4115C 24.5941 14.7754 24.6469 14.1227 24.6469 13.4695L 26.6618 13.4167L 26.6618 13.4695C 26.6618 14.2383 26.5994 15.0088 26.4671 15.7592ZM 2.04604 20.0914C 1.66142 19.4277 1.33263 18.7275 1.06934 18.0088L 2.96384 17.3152C 3.18714 17.9231 3.4645 18.5165 3.79153 19.0778L 2.04604 20.0914ZM 23.585 21.9516L 22.0396 20.654C 22.4571 20.1582 22.8338 19.6211 23.1587 19.058L 24.9055 20.0685C 24.5213 20.7323 24.0769 21.3661 23.585 21.9516ZM 6.88283 24.9121C 6.21954 24.5301 5.58569 24.0866 4.99756 23.5939L 6.29382 22.0475C 6.79184 22.4646 7.32855 22.8409 7.89031 23.1644L 6.88283 24.9121ZM 17.9965 25.8743L 17.3042 23.9785C 17.9134 23.7565 18.5064 23.4792 19.0677 23.1534L 20.0791 24.8989C 19.4163 25.2831 18.7156 25.611 17.9965 25.8743ZM 13.4817 26.6615L 13.4694 26.6615C 12.7054 26.6615 11.9397 26.5995 11.1929 26.4703L 11.5392 24.4852C 12.1718 24.5951 12.8214 24.647 13.4694 24.647L 13.4817 26.6615Z"/>
<path id="path11_fill" fill-rule="evenodd" d="M 18.9974 9.49846C 18.9974 14.7437 14.7455 18.9965 9.4989 18.9965C 4.25187 18.9965 0 14.7437 0 9.49846C 0 4.25143 4.25187 0 9.4989 0C 14.7455 0 18.9974 4.25143 18.9974 9.49846Z"/>
<path id="path12_fill" fill-rule="evenodd" d="M 10.5078 2.01843C 5.82691 2.01843 2.01855 5.82678 2.01855 10.5077C 2.01855 15.189 5.82691 18.9973 10.5078 18.9973C 15.1887 18.9973 18.997 15.189 18.997 10.5077C 18.997 5.82678 15.1887 2.01843 10.5078 2.01843ZM 10.5077 21.0154C 4.71385 21.0154 0 16.3011 0 10.5077C 0 4.71429 4.71385 0 10.5077 0C 16.3015 0 21.0154 4.71429 21.0154 10.5077C 21.0154 16.3011 16.3015 21.0154 10.5077 21.0154Z"/>
<path id="path13_fill" fill-rule="evenodd" d="M 5.8778 3.28747C 5.56527 2.77143 4.67824 2.37626 3.85055 2.37626C 2.85495 2.37626 1.94286 2.66374 1.94286 3.5033C 1.94286 4.29494 2.89055 4.43956 3.89846 4.55912C 5.64967 4.77494 7.52088 5.08703 7.52088 7.1978C 7.52088 8.81758 6.16571 9.72879 4.67824 9.83736L 4.67824 11.0365L 3.15473 11.0365L 3.15473 9.89714C 1.81099 9.77714 0.563516 9.16527 0 7.84615L 1.41495 7.24571C 1.73846 8.01407 2.80703 8.50549 3.80264 8.50549C 4.88176 8.50549 5.8778 8.13363 5.8778 7.1978C 5.8778 6.40659 4.88176 6.11824 3.76571 5.98681C 2.05099 5.79472 0.371429 5.49451 0.371429 3.5033C 0.371429 1.93231 1.76352 1.21187 3.15473 1.04396L 3.15473 0L 4.67824 0L 4.67824 1.04396C 5.69802 1.2 6.63385 1.58374 7.17319 2.68791L 5.8778 3.28747Z"/>
<path id="path14_fill" fill-rule="evenodd" d="M 26.429 15.5903C 25.8923 15.5903 25.4466 15.1679 25.422 14.6268C 25.098 7.52571 18.7873 2.2233 10.4158 2.01758L 1.00879 2.01846C 0.451429 2.01846 0 1.56703 0 1.00923C 0 0.452308 0.451429 0 1.00879 0L 10.4409 0C 19.9257 0.232527 27.0642 6.34505 27.4374 14.5354C 27.4629 15.0919 27.0316 15.5631 26.4752 15.5886C 26.4598 15.5895 26.444 15.5903 26.429 15.5903Z"/>
<path id="path15_fill" fill-rule="evenodd" d="M 1.00831 8.50384C 0.562157 8.50384 0.155124 8.20582 0.0342453 7.75439C -0.109051 7.2168 0.210509 6.66428 0.747212 6.5201C 0.82985 6.49768 5.65183 5.12494 7.07425 0.700321C 7.24523 0.169771 7.81139 -0.122097 8.3437 0.0488922C 8.87381 0.219002 9.16611 0.787793 8.99556 1.31834C 7.22589 6.8234 1.51205 8.4045 1.26897 8.46955C 1.18238 8.49285 1.09403 8.50384 1.00831 8.50384Z"/>
<path id="path16_fill" fill-rule="evenodd" d="M 5.14447 9.05702C 3.69744 9.05702 2.14316 8.63636 0.544474 7.80559C 0.0495291 7.54976 -0.142998 6.94053 0.113705 6.44647C 0.370848 5.95108 0.980518 5.75943 1.47283 6.0157C 2.82008 6.7146 4.80777 7.41921 6.62711 6.8135C 7.58843 6.45833 8.39942 5.63592 8.66316 4.7291C 8.79766 4.26449 8.84513 3.56251 8.30579 2.85789C 7.39854 1.67152 6.24425 1.98185 5.70667 2.35284C 5.46931 2.51592 4.73744 3.11767 5.28206 3.9968C 5.57568 4.4702 5.42931 5.09218 4.9559 5.38581C 4.48294 5.67811 3.86096 5.5335 3.56645 5.05921C 2.62623 3.54009 3.03458 1.74405 4.56118 0.69174C 6.06799 -0.346062 8.38799 -0.355732 9.90931 1.63196C 10.7282 2.70405 10.9739 4.00383 10.6003 5.29086C 10.1581 6.8157 8.89129 8.12822 7.29524 8.71723C 6.61305 8.94449 5.89261 9.05702 5.14447 9.05702Z"/>
<path id="path17_fill" fill-rule="evenodd" d="M 0 0L 4.2993 0L 4.2993 2.97883L 0 2.97883L 0 0Z"/>
<path id="path18_fill" fill-rule="evenodd" d="M 3.29029 2.97883C 1.44457 2.97883 0.366333 1.80564 0.24941 1.67202C -0.117183 1.25268 -0.0749855 0.615755 0.345234 0.249161C 0.761938 -0.116113 1.39403 -0.073476 1.76106 0.335755C 1.79886 0.376634 2.36282 0.96081 3.29029 0.96081C 3.84765 0.96081 4.29952 1.41268 4.29952 1.9696C 4.29952 2.5274 3.84765 2.97883 3.29029 2.97883Z"/>
<path id="path19_fill" fill-rule="evenodd" d="M 5.25582 5.99868C 5.37143 4.38813 4.17451 1.6444 0.571429 0L 0.571429 6.8567C 0.571429 7.05275 0.475165 7.25846 0 7.47516L 0.0307692 7.62022C 0.0307692 7.62022 5.07604 8.52088 5.25582 5.99868Z"/>
<path id="path20_fill" fill-rule="evenodd" d="M 0 12.9705L 3.60264 12.9705L 3.60264 0L 0 0L 0 12.9705Z"/>
<path id="path21_fill" fill-rule="evenodd" d="M 2.16162 12.9702L 3.60294 12.9702L 3.60294 2.16138L 2.16162 2.16138L 2.16162 12.9702ZM 4.68396 15.1319L 1.08088 15.1319C 0.483956 15.1319 0 14.6479 0 14.051L 0 1.08088C 0 0.483516 0.483956 0 1.08088 0L 4.68396 0C 5.28044 0 5.76484 0.483516 5.76484 1.08088L 5.76484 14.051C 5.76484 14.6479 5.28044 15.1319 4.68396 15.1319Z"/>
<path id="path22_fill" fill-rule="evenodd" d="M 5.68955 8.37892C 5.14933 8.37892 4.70141 7.8242 4.68163 7.27958C 4.53262 3.09365 0.919436 2.07343 0.76559 2.03562C 0.227128 1.90068 -0.103421 1.32354 0.0293261 0.784636C 0.161194 0.246174 0.697458 -0.102837 1.24207 0.0272733C 3.0579 0.462878 6.53394 2.62024 6.69878 7.21628C 6.71856 7.77277 6.28295 8.37892 5.72603 8.37892L 5.68955 8.37892Z"/>
</defs>
</svg>
