<svg width="50" height="70" viewBox="0 0 50 70" version="1.1" xmlns="http://www.w3.org/2000/svg" xmlns:xlink="http://www.w3.org/1999/xlink">
<title>Page 1</title>
<desc>Created using Figma</desc>
<g id="Canvas" transform="translate(-4986 -1053)">
<g id="Page 1">
<g id="Fill 1">
<use xlink:href="#path0_fill" transform="translate(4986.69 1091.71)" fill="#4088DA"/>
</g>
<g id="Group 5">
<mask id="mask0_outline" mask-type="alpha">
<g id="Clip 4">
<use xlink:href="#path1_fill" transform="translate(4986 1090.68)" fill="#FFFFFF"/>
</g>
</mask>
<g id="Fill 3" mask="url(#mask0_outline)">
<use xlink:href="#path2_fill" transform="translate(4986 1090.68)" fill="#263357"/>
</g>
</g>
<g id="Fill 6">
<use xlink:href="#path3_fill" transform="translate(5022.34 1094.7)" fill="#303030"/>
</g>
<g id="Fill 8">
<use xlink:href="#path4_fill" transform="translate(5000.6 1093.09)" fill="#FFFFFF"/>
</g>
<g id="Fill 10">
<use xlink:href="#path5_fill" transform="translate(4999.67 1092.16)" fill="#263357"/>
</g>
<g id="Fill 12">
<use xlink:href="#path6_fill" transform="translate(4992.9 1107.93)" fill="#263357"/>
</g>
<g id="Fill 14">
<use xlink:href="#path7_fill" transform="translate(5026.71 1107.93)" fill="#263357"/>
</g>
<g id="Fill 16">
<use xlink:href="#path8_fill" transform="translate(4996.24 1059.28)" fill="#EBF2FF"/>
</g>
<g id="Fill 18">
<use xlink:href="#path9_fill" transform="translate(4995.2 1057.9)" fill="#263357"/>
</g>
<g id="Fill 20">
<use xlink:href="#path10_fill" transform="translate(5015.5 1060.78)" fill="#B8D4EA"/>
</g>
<g id="Fill 22">
<use xlink:href="#path11_fill" transform="translate(4996.18 1094.75)" fill="#263357"/>
</g>
<g id="Fill 24">
<use xlink:href="#path12_fill" transform="translate(5011.3 1094.75)" fill="#263357"/>
</g>
<g id="Fill 26">
<use xlink:href="#path13_fill" transform="translate(5003.12 1096.19)" fill="#263357"/>
</g>
<g id="Fill 28">
<use xlink:href="#path14_fill" transform="translate(5016.71 1117.24)" fill="#263357"/>
</g>
<g id="Fill 30">
<use xlink:href="#path15_fill" transform="translate(5006.81 1097.12)" fill="#FABF4D"/>
</g>
<g id="Fill 32">
<use xlink:href="#path16_fill" transform="translate(5005.88 1096.19)" fill="#263357"/>
</g>
<g id="Fill 34">
<use xlink:href="#path17_fill" transform="translate(5006.47 1104.13)" fill="#FABF4D"/>
</g>
<g id="Fill 36">
<use xlink:href="#path18_fill" transform="translate(5005.44 1102.75)" fill="#263357"/>
</g>
<g id="Fill 38">
<use xlink:href="#path19_fill" transform="translate(5007.39 1076.19)" fill="#263357"/>
</g>
<g id="Fill 40">
<use xlink:href="#path20_fill" transform="translate(4999.11 1074.46)" fill="#C9F2FF"/>
</g>
<g id="Fill 42">
<use xlink:href="#path21_fill" transform="translate(4998.42 1073.08)" fill="#263357"/>
</g>
<g id="Fill 44">
<use xlink:href="#path22_fill" transform="translate(5012.22 1074.46)" fill="#C9F2FF"/>
</g>
<g id="Fill 46">
<use xlink:href="#path23_fill" transform="translate(5011.53 1073.08)" fill="#263357"/>
</g>
<g id="Fill 48">
<use xlink:href="#path24_fill" transform="translate(5001.52 1076.53)" fill="#263357"/>
</g>
<g id="Fill 50">
<use xlink:href="#path25_fill" transform="translate(5014.64 1076.53)" fill="#263357"/>
</g>
<g id="Fill 52">
<use xlink:href="#path26_fill" transform="translate(5006.36 1073.08)" fill="#263357"/>
</g>
<g id="Fill 54">
<use xlink:href="#path27_fill" transform="translate(4995.52 1053.93)" fill="#BADBD6"/>
</g>
<g id="Fill 56">
<use xlink:href="#path28_fill" transform="translate(4994.59 1053)" fill="#263357"/>
</g>
<g id="Fill 58">
<use xlink:href="#path29_fill" transform="translate(5000.61 1054.88)" fill="#A1C4C2"/>
</g>
<g id="Fill 60">
<use xlink:href="#path30_fill" transform="translate(5007.76 1059.26)" fill="#263357"/>
</g>
<g id="Fill 62">
<use xlink:href="#path31_fill" transform="translate(4997.37 1068.59)" fill="#263357"/>
</g>
<g id="Fill 64">
<use xlink:href="#path32_fill" transform="translate(4994.97 1073.08)" fill="#263357"/>
</g>
<g id="Fill 66">
<use xlink:href="#path32_fill" transform="translate(5019.81 1073.08)" fill="#263357"/>
</g>
<g id="Fill 67">
<use xlink:href="#path33_fill" transform="translate(4993 1075.04)" fill="#EBF2FF"/>
</g>
<g id="Fill 68">
<use xlink:href="#path34_fill" transform="translate(4992.06 1074.11)" fill="#263357"/>
</g>
<g id="Fill 69">
<use xlink:href="#path35_fill" transform="translate(5024.74 1074.35)" fill="#EBF2FF"/>
</g>
<g id="Fill 70">
<use xlink:href="#path36_fill" transform="translate(5023.81 1073.42)" fill="#263357"/>
</g>
<g id="Fill 71">
<use xlink:href="#path37_fill" transform="translate(5004.56 1086.53)" fill="#263357"/>
</g>
<g id="Fill 72">
<use xlink:href="#path38_fill" transform="translate(5009.22 1087.22)" fill="#263357"/>
</g>
<g id="Fill 73">
<use xlink:href="#path39_fill" transform="translate(5018.78 1114.83)" fill="#EBF2FF"/>
</g>
<g id="Fill 74">
<use xlink:href="#path40_fill" transform="translate(5017.74 1113.45)" fill="#263357"/>
</g>
<g id="Fill 75">
<use xlink:href="#path41_fill" transform="translate(5009.46 1092.75)" fill="#263357"/>
</g>
<g id="Fill 76">
<use xlink:href="#path42_fill" transform="translate(5013.6 1093.44)" fill="#263357"/>
</g>
<g id="Fill 77">
<use xlink:href="#path43_fill" transform="translate(5006.01 1093.44)" fill="#263357"/>
</g>
<g id="Fill 78">
<use xlink:href="#path44_fill" transform="translate(5015.2 1055.13)" fill="#263357"/>
</g>
</g>
</g>
<defs>
<path id="path0_fill" fill-rule="evenodd" d="M 31.0509 0L 16.5491 0.344783C 15.7713 0.344783 6.74 5.4013 6.03783 5.63522C 3.27783 6.55478 0 9.54478 0 17.3491L 0 30.3604L 47.6109 30.3604L 47.6109 16.4265C 47.6109 12.8626 46.5178 7.93522 42.1487 5.63522C 38.3539 3.79522 35.5822 1.03478 31.0509 0Z"/>
<path id="path1_fill" fill-rule="evenodd" d="M 0 0L 49.6808 0L 49.6808 32.0854L 0 32.0854L 0 0Z"/>
<path id="path2_fill" fill-rule="evenodd" d="M 2.06982 30.0152L 47.6107 30.0152L 47.6107 17.4618C 47.6107 15.7722 47.2442 10.0683 42.529 7.58611C 41.1903 6.93785 39.929 6.15872 38.7094 5.40524C 36.4733 4.02481 34.3603 2.71959 31.6342 2.07263L 17.3433 2.41307C 16.5711 2.65481 12.7763 4.71437 10.7185 5.83089C 8.38939 7.09394 7.54591 7.54611 7.22722 7.65176C 5.30113 8.29437 2.06982 10.5422 2.06982 18.3844L 2.06982 30.0152ZM 48.6461 32.0857L 1.03522 32.0857C 0.463478 32.0857 0 31.6217 0 31.0504L 0 18.3843C 0 9.24391 4.11826 6.50652 6.57304 5.6887C 6.82652 5.58739 8.37 4.75 9.7313 4.0113C 15.6009 0.826087 16.6565 0.345217 17.2387 0.345217L 31.7157 0C 31.81 0.000869565 31.8883 0.00695652 31.9709 0.026087C 35.0922 0.738261 37.4839 2.21565 39.797 3.64435C 41.0265 4.40348 42.1883 5.12087 43.463 5.73913C 49.2348 8.77652 49.6809 15.4791 49.6809 17.4617L 49.6809 31.0504C 49.6809 31.6217 49.2174 32.0857 48.6461 32.0857Z"/>
<path id="path3_fill" fill-rule="evenodd" d="M 11.2704 25.9904L 11.2704 13.437C 11.2704 10.3148 9.92826 4.89 6.32739 3.62217C 4.71565 2.53043 2.64522 1.14957 0 0C 2.76 2.64478 8.51044 7.70522 8.51044 13.437L 8.51044 25.9904L 11.2704 25.9904Z"/>
<path id="path4_fill" fill-rule="evenodd" d="M 10.0322 26.1513L 19.6787 2.01652L 9.54565 0L 0 2.41478L 10.0322 26.1513Z"/>
<path id="path5_fill" fill-rule="evenodd" d="M 2.2124 3.9838L 10.9394 24.6334L 19.3285 3.64336L 10.5015 1.88684L 2.2124 3.9838ZM 10.9638 28.0146C 10.5898 28.0146 10.2516 27.7912 10.1059 27.446L 0.0737535 3.70943C -0.0323334 3.45943 -0.0236378 3.17508 0.0976666 2.9316C 0.218971 2.68856 0.43984 2.5103 0.703319 2.44378L 10.249 0.0285597C 10.3829 -0.00491854 10.5238 -0.00970115 10.6594 0.0181249L 20.7916 2.03508C 21.0633 2.08899 21.2968 2.26117 21.4285 2.50465C 21.5607 2.74769 21.5772 3.03726 21.4751 3.29421L 11.829 27.4294C 11.689 27.7794 11.3507 28.0116 10.9733 28.0146L 10.9638 28.0146Z"/>
<path id="path6_fill" fill-rule="evenodd" d="M 1.03522 13.11C 0.463478 13.11 0 12.6465 0 12.0748L 0 1.03522C 0 0.463478 0.463478 0 1.03522 0C 1.60652 0 2.07 0.463478 2.07 1.03522L 2.07 12.0748C 2.07 12.6465 1.60652 13.11 1.03522 13.11Z"/>
<path id="path7_fill" fill-rule="evenodd" d="M 1.03522 13.8C 0.463913 13.8 0 13.3365 0 12.7648L 0 1.03522C 0 0.463478 0.463913 0 1.03522 0C 1.60652 0 2.07 0.463478 2.07 1.03522L 2.07 12.7648C 2.07 13.3365 1.60652 13.8 1.03522 13.8Z"/>
<path id="path8_fill" fill-rule="evenodd" d="M 28.4052 22.0804C 28.4052 28.7435 21.8509 34.5004 15.0417 34.5004L 13.4783 34.5004C 6.66957 34.5004 0 28.9161 0 22.2526L 0.114783 11.9891C 0.114783 5.32609 6.66957 0 13.4783 0L 15.0417 0C 21.8509 0 28.4052 4.72217 28.4052 11.3852L 28.4052 22.0804Z"/>
<path id="path9_fill" fill-rule="evenodd" d="M 14.5129 2.06995C 7.94591 2.06995 2.18461 7.22908 2.18461 13.1104L 2.06982 23.4721C 2.06982 29.2386 8.00069 34.5008 14.5129 34.5008L 16.0763 34.5008C 22.0581 34.5008 28.7498 29.7786 28.7498 23.4604L 28.7498 12.7656C 28.7498 6.46255 22.0707 2.06995 16.0763 2.06995L 14.5129 2.06995ZM 16.0765 36.5709L 14.513 36.5709C 6.7813 36.5709 0 30.4443 0 23.4604L 0.114348 13.0987C 0.114348 6.12652 6.84261 0 14.513 0L 16.0765 0C 23.05 0 30.82 5.24261 30.82 12.7657L 30.82 23.4604C 30.82 30.9635 23.0361 36.5709 16.0765 36.5709Z"/>
<path id="path10_fill" fill-rule="evenodd" d="M 8.45261 10.2235C 8.45261 5.60435 5.53 1.64043 1.39609 0C 4.45522 2.40696 6.81348 3.26826 4.74391 7.3887L 4.57087 20.4991C 5.0887 25.2317 3.0187 28.4343 0 30.5043C 4.57087 30.8491 8.45261 25.2157 8.45261 20.5965L 8.45261 10.2235Z"/>
<path id="path11_fill" fill-rule="evenodd" d="M 12.6512 27.0648C 12.3742 27.0648 12.0999 26.9421 11.916 26.7061L 2.96945 15.2395C 2.77902 14.9952 2.72249 14.6734 2.81771 14.3787L 4.17684 10.1917L 0.407278 7.62301C 0.0503211 7.38084 -0.0927224 6.92388 0.0616254 6.52084L 2.32989 0.598229C 2.5138 0.117794 3.04989 -0.121337 3.53293 0.0612721C 4.01336 0.245185 4.2538 0.783881 4.06989 1.26388L 2.0651 6.49823L 5.80336 9.04562C 6.1451 9.27823 6.2925 9.7091 6.16467 10.1026L 4.7425 14.483L 13.3847 25.5608C 13.7016 25.9665 13.629 26.5508 13.2229 26.8678C 13.0534 27.0008 12.8512 27.0648 12.6512 27.0648Z"/>
<path id="path12_fill" fill-rule="evenodd" d="M 0.930737 27.0649C 0.725954 27.0649 0.519867 26.9983 0.347259 26.8592C -0.0527413 26.5366 -0.117089 25.9505 0.205954 25.5496L 8.73813 14.9444L 7.58726 10.2249C 7.49856 9.86355 7.63378 9.48529 7.92943 9.26138L 11.5312 6.53355L 9.51291 1.26399C 9.329 0.783985 9.56943 0.24529 10.0503 0.0613766C 10.5268 -0.121232 11.0681 0.117029 11.2529 0.598333L 13.5207 6.52094C 13.6694 6.9079 13.5438 7.34616 13.2138 7.59616L 9.54204 10.377L 10.6573 14.9492C 10.726 15.2305 10.6599 15.5288 10.4781 15.754L 1.65726 26.7175C 1.47335 26.9462 1.20335 27.0649 0.930737 27.0649Z"/>
<path id="path13_fill" fill-rule="evenodd" d="M 0.932529 6.80823C 0.649921 6.80823 0.37079 6.68084 0.187747 6.4378C -0.121818 6.02693 -0.0400794 5.44258 0.370355 5.13258L 6.92557 0.187361C 7.26557 -0.0674216 7.73427 -0.062639 8.06688 0.203448L 14.2769 5.14867C 14.6795 5.46867 14.746 6.05475 14.4251 6.45693C 14.1047 6.8591 13.5182 6.92606 13.1164 6.60519L 7.47166 2.10997L 1.49296 6.6204C 1.3247 6.74736 1.12775 6.80823 0.932529 6.80823Z"/>
<path id="path14_fill" fill-rule="evenodd" d="M 5.17478 2.07L 1.03522 2.07C 0.463478 2.07 0 1.60652 0 1.03522C 0 0.463913 0.463478 0 1.03522 0L 5.17478 0C 5.74609 0 6.21 0.463913 6.21 1.03522C 6.21 1.60652 5.74609 2.07 5.17478 2.07Z"/>
<path id="path15_fill" fill-rule="evenodd" d="M 0 3.10522L 1.61043 7.01565L 5.86522 6.67043L 6.90043 3.33565L 3.79522 0L 0 3.10522Z"/>
<path id="path16_fill" fill-rule="evenodd" d="M 2.05566 4.32004L 3.14436 6.96351L 6.09392 6.72438L 6.78175 4.50612L 4.64045 2.20569L 2.05566 4.32004ZM 2.54119 8.87789C 2.16641 8.87789 1.82511 8.65224 1.68076 8.30137L 0.0703248 4.39093C -0.086197 4.01224 0.0246726 3.57485 0.342064 3.31528L 4.13685 0.210499C 4.51641 -0.100371 5.07206 -0.0629792 5.40859 0.296586L 8.5138 3.63224C 8.74076 3.87659 8.82032 4.22354 8.72119 4.54354L 7.68598 7.87832C 7.57337 8.24137 7.25076 8.4992 6.87206 8.5305L 2.61728 8.87572C 2.59163 8.87702 2.56685 8.87789 2.54119 8.87789Z"/>
<path id="path17_fill" fill-rule="evenodd" d="M 2.07 0L 0 5.57739L 4.14 16.4165L 8.28 5.16087L 6.32609 0L 2.07 0Z"/>
<path id="path18_fill" fill-rule="evenodd" d="M 2.13818 6.77516L 5.15471 14.7369L 8.21297 6.32777L 6.63992 2.06995L 3.83297 2.06995L 2.13818 6.77516ZM 5.17492 18.6304C 4.74536 18.6304 4.35971 18.4226 4.20753 18.0196L 0.0670987 7.12217C -0.0202926 6.89217 -0.0224665 6.65217 0.0614466 6.42043L 2.13101 0.676957C 2.27884 0.265652 2.6684 0 3.10492 0L 7.36101 0C 7.79449 0 8.18145 0.27 8.33188 0.676522L 10.2858 5.96696C 10.371 6.19652 10.3714 6.44826 10.288 6.6787L 6.14797 18.0061C 5.99971 18.4135 5.61449 18.6304 5.18145 18.6304L 5.17492 18.6304Z"/>
<path id="path19_fill" fill-rule="evenodd" d="M 3.60913 12.2948C 3.21696 12.2948 2.85435 12.2722 2.54783 12.2435L 1.54261 12.1483L 1.61304 11.1404C 1.65304 10.5743 1.66652 9.6087 1.65261 8.37348C 1.51696 8.33174 1.39217 8.28435 1.27304 8.23956C 1.1313 8.18565 0.976957 8.12565 0.778261 8.07478L 0 7.87565L 0 1.03478C 0 0.463044 0.463913 0 1.03522 0C 1.60652 0 2.07 0.463044 2.07 1.03478L 2.07 6.32739C 2.3013 6.41565 2.42043 6.45609 2.6313 6.44087L 3.68783 6.39783L 3.7087 7.45478C 3.72522 8.29261 3.73652 9.33783 3.71957 10.2222C 4.77783 10.2057 5.61652 9.98 5.93261 9.6013C 6.2987 9.1613 6.9513 9.10304 7.39 9.4687C 7.82957 9.83435 7.8887 10.4874 7.52261 10.9261C 6.59478 12.04 4.93522 12.2948 3.60913 12.2948Z"/>
<path id="path20_fill" fill-rule="evenodd" d="M 8.97 4.65478C 8.97 5.89478 7.96478 6.9 6.72478 6.9L 2.24522 6.9C 1.00522 6.9 0 5.89478 0 4.65478L 0 2.24522C 0 1.00522 1.00522 0 2.24522 0L 6.72478 0C 7.96478 0 8.97 1.00522 8.97 2.24522L 8.97 4.65478Z"/>
<path id="path21_fill" fill-rule="evenodd" d="M 3.27982 2.06995C 2.61287 2.06995 2.06982 2.61299 2.06982 3.27995L 2.06982 5.68951C 2.06982 6.3569 2.61287 6.89995 3.27982 6.89995L 7.75939 6.89995C 8.42678 6.89995 8.96982 6.3569 8.96982 5.68951L 8.96982 3.27995C 8.96982 2.61299 8.42678 2.06995 7.75939 2.06995L 3.27982 2.06995ZM 7.75957 8.97L 3.28 8.97C 1.4713 8.97 0 7.49826 0 5.68957L 0 3.28C 0 1.47174 1.4713 0 3.28 0L 7.75957 0C 9.56826 0 11.04 1.47174 11.04 3.28L 11.04 5.68957C 11.04 7.49826 9.56826 8.97 7.75957 8.97Z"/>
<path id="path22_fill" fill-rule="evenodd" d="M 8.97 4.65478C 8.97 5.89478 7.96435 6.9 6.72478 6.9L 2.24522 6.9C 1.00565 6.9 0 5.89478 0 4.65478L 0 2.24522C 0 1.00522 1.00565 0 2.24522 0L 6.72478 0C 7.96435 0 8.97 1.00522 8.97 2.24522L 8.97 4.65478Z"/>
<path id="path23_fill" fill-rule="evenodd" d="M 3.27982 2.06995C 2.61287 2.06995 2.06982 2.61299 2.06982 3.27995L 2.06982 5.68951C 2.06982 6.3569 2.61287 6.89995 3.27982 6.89995L 7.75982 6.89995C 8.42678 6.89995 8.96982 6.3569 8.96982 5.68951L 8.96982 3.27995C 8.96982 2.61299 8.42678 2.06995 7.75982 2.06995L 3.27982 2.06995ZM 7.76 8.97L 3.28 8.97C 1.47174 8.97 0 7.49826 0 5.68957L 0 3.28C 0 1.47174 1.47174 0 3.28 0L 7.76 0C 9.56826 0 11.04 1.47174 11.04 3.28L 11.04 5.68957C 11.04 7.49826 9.56826 8.97 7.76 8.97Z"/>
<path id="path24_fill" fill-rule="evenodd" d="M 3.10522 2.07043L 1.03522 2.07043C 0.463913 2.07043 0 1.60696 0 1.03522C 0 0.463913 0.463913 0 1.03522 0L 3.10522 0C 3.67652 0 4.14 0.463913 4.14 1.03522C 4.14 1.60696 3.67652 2.07043 3.10522 2.07043Z"/>
<path id="path25_fill" fill-rule="evenodd" d="M 3.10522 2.07043L 1.03478 2.07043C 0.463913 2.07043 0 1.60696 0 1.03522C 0 0.463913 0.463913 0 1.03478 0L 3.10522 0C 3.67609 0 4.14 0.463913 4.14 1.03522C 4.14 1.60696 3.67609 2.07043 3.10522 2.07043Z"/>
<path id="path26_fill" fill-rule="evenodd" d="M 8.62478 2.07L 1.03478 2.07C 0.463478 2.07 0 1.60652 0 1.03478C 0 0.463478 0.463478 0 1.03478 0L 8.62478 0C 9.19609 0 9.66 0.463478 9.66 1.03478C 9.66 1.60652 9.19609 2.07 8.62478 2.07Z"/>
<path id="path27_fill" fill-rule="evenodd" d="M 22.9056 34.2458C 21.6116 32.6067 20.9203 30.7949 14.8556 30.6519C 9.96773 30.5371 7.89773 31.9171 6.51773 34.1597C 5.22381 34.0736 0.919467 29.5397 0.479902 26.3106C -0.144011 21.7223 4.26295 16.1997 4.3899 15.8167C 11.6347 15.8167 15.3151 13.4023 18.996 8.22668C 20.2608 11.5615 21.4673 13.991 25.5508 16.3919C 26.5282 16.9667 29.2695 17.2089 29.346 17.3115C 29.4256 19.4149 29.476 24.1106 29.1156 26.7419C 28.706 29.7267 26.0108 33.2967 22.9056 34.2458ZM 29.9204 17.7715C 29.9204 17.7715 29.9321 13.5241 29.8056 12.1945C 29.3004 6.88712 26.183 2.59146 21.1804 2.50538C 19.5417 1.21146 17.3856 -0.0820151 13.5039 0.00407187C 10.4086 0.0727675 7.38037 0.521898 4.62038 2.59146C 3.55559 3.38972 2.32037 4.54625 1.40081 6.61625C 0.604723 8.40581 0.236897 10.4776 0.135158 12.5106C 0.0490708 14.2358 -0.0131031 18.4084 0.0490708 19.6693C 0.0490708 26.3106 -0.640929 36.2293 3.15385 40.6284C 6.88559 44.9545 14.8556 45.5445 14.8556 45.5445C 16.4617 45.4549 22.8521 44.7845 27.0452 40.4558C 30.6104 36.7758 30.1504 26.2819 29.9204 17.7715Z"/>
<path id="path28_fill" fill-rule="evenodd" d="M 14.7999 1.86255C 14.6869 1.86255 14.5721 1.86385 14.4564 1.86646C 11.7029 1.92733 8.78642 2.26038 6.11076 4.26777C 5.2012 4.94994 4.04685 5.98168 3.18381 7.92559C 2.50468 9.45255 2.10555 11.3243 1.99642 13.4878C 1.91294 15.1752 1.85076 19.3317 1.91033 20.5547C 1.91076 20.593 1.91076 20.6321 1.91076 20.6708C 2.72207 18.9765 3.66685 17.5704 4.20381 16.7708C 4.3299 16.5834 4.42424 16.446 4.4712 16.366C 4.62033 16.0347 4.95207 15.8169 5.3212 15.8169C 12.6208 15.8169 15.926 13.1773 19.1677 8.6182C 19.3673 8.3382 19.7012 8.18646 20.0455 8.23385C 20.3869 8.27777 20.6769 8.50646 20.7986 8.8282C 21.9995 11.9934 23.076 14.2395 26.9547 16.5195C 27.4703 16.8234 28.969 17.0621 29.689 17.1773C 29.7708 17.1904 29.846 17.2021 29.9169 17.2139C 29.9086 15.866 29.8838 13.9925 29.8095 13.2134C 29.3047 7.91211 26.2764 4.43994 22.0955 4.36777C 21.8921 4.36429 21.6947 4.29429 21.5342 4.16777C 20.0182 2.96994 18.1529 1.86255 14.7999 1.86255ZM 15.2302 30.6452C 15.4189 30.6452 15.6124 30.6473 15.8098 30.6521C 21.6445 30.7895 23.0085 32.5165 24.1624 34.0643C 26.7406 32.9408 28.8067 29.8591 29.1241 27.546C 29.4228 25.3695 29.438 21.5104 29.3706 19.0125C 28.0798 18.8069 26.7611 18.5673 26.0102 18.126C 22.3302 15.9625 20.8159 13.6834 19.6802 11.046C 16.5037 15.0773 12.8076 17.5591 5.8415 17.6752C 5.81324 17.7173 5.78368 17.7612 5.75063 17.8104C 4.78759 19.2434 1.85716 23.6038 2.33498 27.1165C 2.68324 29.6786 5.75803 33.0395 7.1015 33.9417C 8.80237 31.6399 11.2859 30.6452 15.2302 30.6452ZM 1.9751 30.9613C 2.21249 34.9965 2.9064 38.7674 4.79075 40.9509C 8.07249 44.7552 15.0942 45.4783 15.7994 45.5422C 17.1625 45.4583 23.319 44.8574 27.3086 40.7387C 29.0377 38.9535 29.7307 35.1757 29.9673 30.8274C 28.699 33.2574 26.4594 35.3496 24.1094 36.0678C 23.7429 36.1796 23.3438 36.0552 23.1064 35.7543C 22.9721 35.5839 22.8438 35.4126 22.716 35.2409C 21.6729 33.8417 20.7725 32.6322 15.7655 32.5148C 15.5834 32.5104 15.4051 32.5078 15.2303 32.5078C 10.999 32.5078 9.37727 33.7357 8.24336 35.5791C 8.06118 35.8739 7.72988 36.0409 7.38771 36.02C 6.0451 35.9309 3.5764 33.5335 1.9751 30.9613ZM 15.7875 47.4069C 15.7645 47.4069 15.7414 47.4065 15.7188 47.4052C 15.3775 47.3791 7.3184 46.733 3.3797 42.1678C -0.158996 38.0661 -0.0563874 29.87 0.0262213 23.2843C 0.0375256 22.3482 0.0492648 21.4474 0.0492648 20.6004C -0.0133439 19.3543 0.0479604 15.1587 0.136656 13.3947C 0.256221 11.0013 0.70796 8.90605 1.481 7.16866C 2.531 4.80649 3.9884 3.53083 4.99231 2.77736C 8.09753 0.448661 11.4984 0.0686609 14.4149 0.00387827C 18.4067 -0.0796 20.7206 1.19823 22.4458 2.51605C 27.3984 2.76997 31.0854 6.95518 31.6645 13.0374C 31.7936 14.3965 31.784 18.5304 31.7832 18.7056L 31.814 19.793C 32.0554 28.4365 32.3293 38.2326 28.6462 42.0352C 24.108 46.72 17.1819 47.3308 15.8393 47.4056C 15.8219 47.4069 15.8049 47.4069 15.7875 47.4069Z"/>
<path id="path29_fill" fill-rule="evenodd" d="M 8.16478 6.24297e-05C 7.8413 -0.00472018 2.07 0.259193 0 2.90398C 0.706957 2.77354 4.10435 2.28789 4.45609 2.24267C 15.1509 0.862671 22.1322 6.80137 21.7926 14.4048C 21.7787 14.7079 23.6657 15.1061 23.7483 15.3244C 24.007 14.0305 23.84 13.8688 23.69 11.874C 23.3452 7.27398 21.2748 2.93267 15.9274 2.58745C 13.7713 0.949193 11.093 0.044845 8.16478 6.24297e-05Z"/>
<path id="path30_fill" fill-rule="evenodd" d="M 0.932473 5.05056C 0.596386 5.05056 0.271169 4.86795 0.105516 4.54882C -0.13231 4.0923 0.0455164 3.52969 0.502038 3.2923C 1.78378 2.62534 2.96552 1.5136 3.44378 0.525777C 3.66769 0.062733 4.22508 -0.130745 4.68769 0.0931678C 5.15073 0.316646 5.34465 0.874472 5.1203 1.33708C 4.33334 2.96491 2.66247 4.26795 1.3616 4.94491C 1.22421 5.01621 1.07726 5.05056 0.932473 5.05056Z"/>
<path id="path31_fill" fill-rule="evenodd" d="M 3.34279 2.01054C 2.06931 2.01054 0.878439 1.86358 0.81583 1.85619C 0.30583 1.79184 -0.0559088 1.32662 0.00713468 0.816187C 0.0714825 0.305318 0.5367 -0.0555518 1.04757 0.00705686C 1.0654 0.00966556 2.81583 0.222709 4.19453 0.117926C 4.71192 0.068796 5.1554 0.462274 5.19453 0.975318C 5.23409 1.48793 4.85105 1.93619 4.33757 1.97532C 4.01279 2.00054 3.67496 2.01054 3.34279 2.01054Z"/>
<path id="path32_fill" fill-rule="evenodd" d="M 0 2.07L 5.52 2.07L 5.52 0L 0 0L 0 2.07Z"/>
<path id="path33_fill" fill-rule="evenodd" d="M 3.12496 2.99087C 3.12496 4.51522 3.12496 5.29043 2.66453 6.09609C 1.5367 6.28391 0.151916 4.39391 0.0197425 2.87522C -0.152866 0.891739 0.831916 0 1.97453 0C 3.11757 0 3.12496 1.46652 3.12496 2.99087Z"/>
<path id="path34_fill" fill-rule="evenodd" d="M 2.90912 1.84216C 2.61912 1.8626 2.38738 1.95695 2.21781 2.14173C 1.93738 2.44738 1.81738 3.01042 1.87912 3.72564C 1.95477 4.59608 2.55999 5.49999 3.03303 5.89825C 3.11825 5.4626 3.12477 4.88608 3.12477 3.92173C 3.12477 3.27695 3.12477 2.07695 2.90912 1.84216ZM 3.43715 7.97174C 1.7428 7.97174 0.183673 5.73696 0.0232383 3.88739C -0.115457 2.29522 0.393238 1.37478 0.844108 0.882609C 1.36585 0.313043 2.09889 0 2.90628 0C 4.98846 0 4.98846 2.35957 4.98846 3.92174C 4.98846 5.51 4.98846 6.46913 4.40454 7.4887L 4.18498 7.87304L 3.74976 7.94565C 3.64585 7.96261 3.54237 7.97174 3.43715 7.97174Z"/>
<path id="path35_fill" fill-rule="evenodd" d="M 0 2.99087C 0 4.51522 0 5.29043 0.459565 6.09609C 1.58739 6.28391 2.97304 4.39391 3.10522 2.87522C 3.27739 0.891739 2.29304 0 1.15 0C 0.00695646 0 0 1.46652 0 2.99087Z"/>
<path id="path36_fill" fill-rule="evenodd" d="M 2.081 1.86255C 1.8623 2.07603 1.8623 3.2769 1.8623 3.92168C 1.8623 4.88516 1.86926 5.46211 1.95491 5.89777C 2.42796 5.49951 3.0323 4.59603 3.10839 3.72559C 3.17057 3.00994 3.05013 2.44733 2.77013 2.14211C 2.60013 1.9569 2.36839 1.86255 2.081 1.86255ZM 1.54957 7.97174C 1.44435 7.97174 1.34 7.96261 1.23783 7.94565L 0.801304 7.87304L 0.581304 7.48826C 0 6.46913 0 5.51 0 3.92174C 0 2.36 0 0 2.08087 0C 2.88826 0 3.62087 0.313478 4.14304 0.882609C 4.59391 1.37478 5.10261 2.29522 4.96435 3.88739C 4.80304 5.73696 3.24435 7.97174 1.54957 7.97174Z"/>
<path id="path37_fill" fill-rule="evenodd" d="M 0.931306 4.04826C 0.416958 4.0487 1.36048e-06 3.63174 1.36048e-06 3.11652C -0.000868205 2.60348 0.415219 2.18696 0.928697 2.18565C 0.990436 2.18435 3.54522 2.13391 4.8387 0.37913C 5.14478 -0.0356524 5.72783 -0.123044 6.14131 0.181304C 6.55609 0.486956 6.64391 1.07043 6.33913 1.48435C 4.47044 4.0187 1.07478 4.04826 0.931306 4.04826Z"/>
<path id="path38_fill" fill-rule="evenodd" d="M 5.67504 3.44447C 2.1333 3.44447 0.340695 1.66012 0.266347 1.58403C -0.0936527 1.21751 -0.0880005 0.627077 0.278956 0.266208C 0.642869 -0.0911837 1.22896 -0.088575 1.59026 0.273164C 1.65765 0.338381 2.97156 1.58186 5.67504 1.58186C 6.18939 1.58186 6.60635 1.99925 6.60635 2.51273C 6.60635 3.02708 6.18939 3.44447 5.67504 3.44447Z"/>
<path id="path39_fill" fill-rule="evenodd" d="M 6.21 3.79522L 0 3.79522L 4.02565 0L 6.21 3.79522Z"/>
<path id="path40_fill" fill-rule="evenodd" d="M 3.6416 3.79546L 5.45551 3.79546L 4.81725 2.68677L 3.6416 3.79546ZM 7.24503 5.86552L 1.03503 5.86552C 0.611116 5.86552 0.229812 5.60682 0.0728554 5.21247C -0.0832316 4.81856 0.0163337 4.36813 0.325029 4.07682L 4.35025 0.282039C 4.58068 0.0650823 4.89546 -0.0353525 5.21155 0.0111692C 5.52503 0.057691 5.79981 0.244213 5.95764 0.51943L 8.14242 4.31421C 8.32677 4.63465 8.3259 5.02856 8.14155 5.34856C 7.95633 5.66899 7.61459 5.86552 7.24503 5.86552Z"/>
<path id="path41_fill" fill-rule="evenodd" d="M 1.03478 4.14C 0.463478 4.14 0 3.67652 0 3.10478L 0 1.03478C 0 0.463478 0.463478 0 1.03478 0C 1.60609 0 2.06957 0.463478 2.06957 1.03478L 2.06957 3.10478C 2.06957 3.67652 1.60609 4.14 1.03478 4.14Z"/>
<path id="path42_fill" fill-rule="evenodd" d="M 1.03522 2.76043C 0.463913 2.76043 0 2.29696 0 1.72522L 0 1.03522C 0 0.463913 0.463913 0 1.03522 0C 1.60609 0 2.07 0.463913 2.07 1.03522L 2.07 1.72522C 2.07 2.29696 1.60609 2.76043 1.03522 2.76043Z"/>
<path id="path43_fill" fill-rule="evenodd" d="M 1.03522 2.76043C 0.463913 2.76043 0 2.29696 0 1.72522L 0 1.03522C 0 0.463913 0.463913 0 1.03522 0C 1.60652 0 2.07 0.463913 2.07 1.03522L 2.07 1.72522C 2.07 2.29696 1.60652 2.76043 1.03522 2.76043Z"/>
<path id="path44_fill" fill-rule="evenodd" d="M 2.02255 4.04953C 1.55429 4.04953 1.15125 3.69649 1.09777 3.2204C 1.03994 2.70084 0.748204 2.13779 0.230813 1.54518C -0.108317 1.15866 -0.0691868 0.569532 0.318204 0.231271C 0.705161 -0.108729 1.29386 -0.0691634 1.63255 0.319097C 2.40603 1.20301 2.84907 2.10997 2.94951 3.01431C 3.00647 3.52562 2.63777 3.98649 2.1269 4.04301C 2.09168 4.04736 2.0569 4.04953 2.02255 4.04953Z"/>
</defs>
</svg>
