<svg width="60" height="65" viewBox="0 0 60 65" version="1.1" xmlns="http://www.w3.org/2000/svg" xmlns:xlink="http://www.w3.org/1999/xlink">
<title>Page 1</title>
<desc>Created using Figma</desc>
<g id="Canvas" transform="translate(-5439 -856)">
<g id="Page 1">
<g id="Fill 1">
<use xlink:href="#path0_fill" transform="translate(5466.39 857.625)" fill="#FABF4D"/>
</g>
<g id="Group 5">
<mask id="mask0_outline" mask-type="alpha">
<g id="Clip 4">
<use xlink:href="#path1_fill" transform="translate(5465.77 856.38)" fill="#FFFFFF"/>
</g>
</mask>
<g id="Fill 3" mask="url(#mask0_outline)">
<use xlink:href="#path2_fill" transform="translate(5465.77 856.38)" fill="#263357"/>
</g>
</g>
<g id="Fill 6">
<use xlink:href="#path3_fill" transform="translate(5457.3 871.726)" fill="#FABF4D"/>
</g>
<g id="Group 10">
<mask id="mask1_outline" mask-type="alpha">
<g id="Clip 9">
<use xlink:href="#path4_fill" transform="translate(5456.37 870.791)" fill="#FFFFFF"/>
</g>
</mask>
<g id="Fill 8" mask="url(#mask1_outline)">
<use xlink:href="#path5_fill" transform="translate(5456.37 870.791)" fill="#263357"/>
</g>
</g>
<g id="Fill 11">
<use xlink:href="#path6_fill" transform="translate(5457.3 907.826)" fill="#25CE9E"/>
</g>
<g id="Fill 13">
<use xlink:href="#path7_fill" transform="translate(5456.43 906.954)" fill="#263357"/>
</g>
<g id="Fill 15">
<use xlink:href="#path8_fill" transform="translate(5440.28 861.518)" fill="#4088DA"/>
</g>
<g id="Fill 17">
<use xlink:href="#path9_fill" transform="translate(5439.35 860.429)" fill="#263357"/>
</g>
<g id="Fill 19">
<use xlink:href="#path10_fill" transform="translate(5473.77 862.657)" fill="#2E75DA"/>
</g>
<g id="Fill 21">
<use xlink:href="#path11_fill" transform="translate(5450.64 861.1)" fill="#263357"/>
</g>
<g id="Fill 23">
<use xlink:href="#path12_fill" transform="translate(5480.52 867.663)" fill="#263357"/>
</g>
<g id="Fill 25">
<use xlink:href="#path13_fill" transform="translate(5468.62 860.948)" fill="#263357"/>
</g>
<g id="Fill 27">
<use xlink:href="#path14_fill" transform="translate(5461.78 861.405)" fill="#263357"/>
</g>
<g id="Fill 29">
<use xlink:href="#path15_fill" transform="translate(5466.7 903.692)" fill="#263357"/>
</g>
<g id="Fill 31">
<use xlink:href="#path16_fill" transform="translate(5469.84 861.099)" fill="#263357"/>
</g>
<g id="Fill 33">
<use xlink:href="#path17_fill" transform="translate(5439 863.539)" fill="#263357"/>
</g>
<g id="Fill 35">
<use xlink:href="#path18_fill" transform="translate(5496.9 864.161)" fill="#263357"/>
</g>
<g id="Fill 37">
<use xlink:href="#path19_fill" transform="translate(5445.85 859.803)" fill="#263357"/>
</g>
<g id="Fill 39">
<use xlink:href="#path20_fill" transform="translate(5490.67 859.803)" fill="#263357"/>
</g>
<g id="Fill 41">
<use xlink:href="#path21_fill" transform="translate(5452.7 858.558)" fill="#263357"/>
</g>
<g id="Fill 43">
<use xlink:href="#path22_fill" transform="translate(5483.82 858.558)" fill="#263357"/>
</g>
</g>
</g>
<defs>
<path id="path0_fill" fill-rule="evenodd" d="M 3.73519 5.01987C 3.73519 6.02962 2.91646 6.84797 1.90671 6.84797L 1.82848 6.84797C 0.818734 6.84797 0 6.02962 0 5.01987L 0 1.8281C 0 0.818734 0.818734 0 1.82848 0L 1.90671 0C 2.91646 0 3.73519 0.818734 3.73519 1.8281L 3.73519 5.01987Z"/>
<path id="path1_fill" fill-rule="evenodd" d="M 0 0L 5.60278 0L 5.60278 8.71515L 0 8.71515L 0 0Z"/>
<path id="path2_fill" fill-rule="evenodd" d="M 2.76285 1.86761C 2.2688 1.86761 1.86816 2.26901 1.86816 2.76154L 1.86816 5.95369C 1.86816 6.4466 2.2688 6.84761 2.76285 6.84761L 2.84032 6.84761C 3.33437 6.84761 3.73576 6.4466 3.73576 5.95369L 3.73576 2.76154C 3.73576 2.26901 3.33437 1.86761 2.84032 1.86761L 2.76285 1.86761ZM 2.84013 8.71519L 2.76266 8.71519C 1.23873 8.71519 0 7.47646 0 5.95367L 0 2.76152C 0 1.23873 1.23873 0 2.76266 0L 2.84013 0C 4.36405 0 5.60278 1.23873 5.60278 2.76152L 5.60278 5.95367C 5.60278 7.47646 4.36405 8.71519 2.84013 8.71519Z"/>
<path id="path3_fill" fill-rule="evenodd" d="M 6.62906 48.1523L 6.52805 48.1523C 3.49273 47.5295 1.35324 46.4704 0.166526 43.8828C -0.253854 42.9646 0.149058 41.7251 1.06691 41.3051C 1.98627 40.8839 3.07007 41.2101 3.49159 42.128C 3.98564 43.2076 4.69994 43.9192 6.57665 43.9181C 7.23779 43.9181 7.81501 43.6287 8.34286 43.1753C 9.71374 41.9935 9.56184 37.7316 9.56184 37.6796L 9.44754 1.83076C 9.44754 0.821013 10.1254 0 11.1351 0C 12.1453 0 12.8235 0.816456 12.8235 1.82582L 12.8235 37.5615C 12.8235 40.0701 13.076 43.947 10.9065 45.9395C 9.65868 47.0856 8.44159 48.1523 6.62906 48.1523Z"/>
<path id="path4_fill" fill-rule="evenodd" d="M 0 0L 15.0015 0L 15.0015 49.7098L 0 49.7098L 0 0Z"/>
<path id="path5_fill" fill-rule="evenodd" d="M 7.55388 47.842L 7.56148 47.842C 8.84388 47.842 9.98046 47.3005 11.3627 46.031C 13.1419 44.397 13.1331 41.1657 13.1331 38.8064L 13.1331 38.4969L 13.1331 2.76078C 13.1331 2.26825 12.7245 1.86761 12.2232 1.86761C 11.7216 1.86761 11.3134 2.26939 11.3134 2.76306L 11.4277 38.607C 11.4645 40.036 11.3878 43.5126 9.88515 44.8082C 9.14388 45.4447 8.34414 45.7671 7.50907 45.7671C 4.97654 45.7671 4.07654 44.509 3.57452 43.4127C 3.38046 42.9896 2.84009 42.8028 2.38781 43.0113C 2.17743 43.1074 2.01338 43.2946 1.92679 43.5388C 1.83945 43.7845 1.84667 44.0526 1.94768 44.2732C 2.96882 46.5 4.77869 47.2762 7.55388 47.842ZM 7.56158 49.71L 7.46057 49.71C 7.39867 49.71 7.33715 49.7035 7.27639 49.6914C 4.03791 49.0409 1.60373 48.0027 0.250312 45.0509C -0.0519665 44.392 -0.0815867 43.6128 0.167527 42.9125C 0.424616 42.1887 0.937274 41.621 1.61094 41.313C 1.98538 41.1414 2.38221 41.0544 2.79044 41.0544C 3.87424 41.0544 4.82474 41.6601 5.27246 42.6346C 5.60056 43.3519 5.97348 43.8995 7.50424 43.8995C 7.89576 43.8995 8.26335 43.7385 8.66664 43.3922C 9.31183 42.8362 9.60879 40.5334 9.56094 38.6495L 9.44588 2.76608C 9.44588 1.23949 10.6918 0 12.2233 0C 13.7545 0 15.0008 1.23835 15.0008 2.76076L 15.0012 38.8037C 15.005 41.3575 15.0115 45.2165 12.6259 47.4065C 11.4589 48.4789 9.82829 49.71 7.56158 49.71Z"/>
<path id="path6_fill" fill-rule="evenodd" d="M 13.1045 0C 11.9239 0.149241 10.7398 -0.0394937 9.55235 0.0372152L 9.56184 1.56987C 9.56184 1.6219 9.71374 5.87468 8.34286 7.05532C 7.81501 7.50873 7.23779 7.77911 6.57703 7.77911C 4.69994 7.78063 3.98564 7.03063 3.49159 5.95063C 3.07045 5.03278 1.98627 4.63025 1.06691 5.05101C 0.149058 5.47101 -0.253854 6.55709 0.166526 7.47456C 1.35361 10.0622 3.49273 11.3954 6.52842 11.4361C 6.56184 11.4361 6.59564 11.4368 6.62906 11.4368C 8.44197 11.4368 9.79918 10.6773 11.047 9.53165C 13.2161 7.53873 13.1045 3.96987 13.1045 1.46165L 13.1045 0Z"/>
<path id="path7_fill" fill-rule="evenodd" d="M 2.70161 6.62742C 2.56414 6.62742 2.42971 6.65704 2.30288 6.71552C 2.07047 6.82147 1.89351 7.01173 1.80465 7.25135C 1.71541 7.49059 1.72528 7.75109 1.83161 7.98236C 2.88085 10.2703 4.70591 11.4005 7.41237 11.4369L 7.50199 12.3088L 7.50199 11.4369C 8.90629 11.4369 10.0512 10.936 11.3302 9.76147C 13.1169 8.12021 13.1109 4.98008 13.1059 2.68717L 13.1052 1.8016C 12.744 1.80578 12.3457 1.79476 11.9617 1.78147C 11.7419 1.77426 11.5224 1.76704 11.3021 1.76324L 11.3063 2.43616C 11.3427 3.85945 11.2676 7.31021 9.78465 8.5873C 9.06199 9.20818 8.27705 9.52299 7.44958 9.52299C 4.96072 9.52299 4.07022 8.274 3.57161 7.18565C 3.41629 6.84692 3.0749 6.62742 2.70161 6.62742ZM 7.50178 13.1807C 7.49912 13.1807 7.44558 13.1799 7.4433 13.1799C 4.03697 13.1344 1.56747 11.5888 0.247095 8.70957C -0.0536648 8.05451 -0.0806269 7.32046 0.170386 6.64451C 0.421398 5.96856 0.921525 5.43046 1.57659 5.13046C 1.93355 4.96716 2.31178 4.88438 2.7014 4.88438C 3.75368 4.88438 4.71709 5.50261 5.15608 6.45919C 5.49899 7.20729 5.88444 7.77957 7.4452 7.77957C 7.85912 7.77957 8.23963 7.61628 8.64747 7.26653C 9.31431 6.69197 9.61279 4.42337 9.56304 2.47944L 9.55279 0.914506C 9.55051 0.453114 9.90785 0.0688099 10.3685 0.0388099C 10.9203 0.00387318 11.4705 0.0209618 12.0204 0.0395694C 12.6895 0.0623542 13.3617 0.0707086 13.8679 0.0072909C 14.112 -0.0253673 14.3661 0.0528605 14.5533 0.21843C 14.7409 0.384 14.8487 0.622481 14.8487 0.871974L 14.8487 2.68413C 14.8541 5.30096 14.8613 8.88387 12.5091 11.0454C 10.9225 12.5021 9.33178 13.1807 7.50178 13.1807Z"/>
<path id="path8_fill" fill-rule="evenodd" d="M 5.35253 19.9796C 7.97278 19.9796 10.1803 21.6308 10.8771 24.1208L 11.5105 24.1208C 12.207 21.6308 14.4152 19.972 17.0354 19.972C 19.6557 19.972 21.8632 21.6308 22.5604 24.1208L 23.1934 24.1208C 23.8906 21.6308 26.0977 19.972 28.7184 19.972C 31.3386 19.972 33.5461 21.6308 34.2433 24.1208L 34.8763 24.1208C 35.5732 21.6308 37.781 19.972 40.4009 19.972C 43.0215 19.972 45.2286 21.6308 45.9262 24.1208L 46.5589 24.1208C 47.2561 21.6308 49.4632 19.972 52.0842 19.972C 54.7041 19.972 56.9119 21.6308 57.6091 24.1208L 57.7481 24.1208C 57.1344 11.0476 44.4365 0 28.8554 0C 13.4681 0 0.903418 10.4491 0 23.6271C 0.841519 21.4918 2.91873 19.9796 5.35253 19.9796Z"/>
<path id="path9_fill" fill-rule="evenodd" d="M 6.2839 19.9793C 8.8358 19.9793 10.992 21.2142 12.1214 23.2246C 13.2667 21.1386 15.4628 19.8163 17.9668 19.8163C 20.4678 19.8163 22.6616 21.1363 23.8085 23.2185C 24.9549 21.1363 27.1487 19.8163 29.6497 19.8163C 32.1507 19.8163 34.3442 21.1356 35.491 23.2185C 36.6374 21.1356 38.8312 19.8163 41.3323 19.8163C 43.8336 19.8163 46.0271 21.1363 47.1743 23.2185C 48.3211 21.1363 50.5141 19.8163 53.0155 19.8163C 54.6124 19.8163 56.0843 20.3541 57.2379 21.2856C 54.6743 10.2934 43.1577 1.86761 29.7868 1.86761C 16.3419 1.86761 4.97871 10.1366 2.37402 21.2336C 3.4844 20.4327 4.8401 19.9793 6.2839 19.9793ZM 58.6796 25.8327L 58.5406 25.8327L 57.6414 25.1503C 57.0608 23.0772 55.2019 21.6839 53.0157 21.6839C 50.8291 21.6839 48.9703 23.0772 48.3896 25.1503L 47.4904 25.8327L 46.8577 25.8327L 45.9585 25.1503C 45.3782 23.0772 43.5186 21.6839 41.3324 21.6839C 39.1462 21.6839 37.2866 23.0765 36.7071 25.1503L 35.8078 25.8327L 35.1748 25.8327L 34.2756 25.1503C 33.6949 23.0772 31.8361 21.6839 29.6499 21.6839C 27.4637 21.6839 25.6044 23.0772 25.0238 25.1503L 24.1249 25.8327L 23.4919 25.8327L 22.593 25.1503C 22.012 23.0772 20.1528 21.6839 17.967 21.6839C 15.78 21.6839 13.9211 23.0765 13.3409 25.1503L 12.442 25.8327L 11.8086 25.8327L 10.9097 25.1503C 10.339 23.1125 8.56671 21.8468 6.28405 21.8468C 4.2919 21.8468 2.53215 23.0465 1.80038 24.903L 0 24.4967C 0.941772 10.7605 14.0256 0 29.787 0C 45.5894 0 58.9694 11.1494 59.6123 24.8552L 58.6796 25.8327Z"/>
<path id="path10_fill" fill-rule="evenodd" d="M 19.7814 17.82C 20.9415 18.0235 22.0014 18.5222 22.8744 19.2513C 20.7019 9.32089 11.5511 1.64127 0 0C 8.52 3.21266 17.3571 9.77734 19.7814 17.82Z"/>
<path id="path11_fill" fill-rule="evenodd" d="M 0.871519 24.2941C 0.39 24.2941 0 23.9041 0 23.4226C 0 12.1919 7.86418 3.17065 15.6323 0.0624266C 16.077 -0.116054 16.5866 0.101161 16.7651 0.548503C 16.9435 0.995085 16.7267 1.50205 16.2794 1.68091C 9.23279 4.50015 1.74342 13.0782 1.74342 23.4226C 1.74342 23.9041 1.35304 24.2941 0.871519 24.2941Z"/>
<path id="path12_fill" fill-rule="evenodd" d="M 6.06776 16.9956L 6.067 16.9956C 5.58586 16.9948 5.19586 16.6048 5.19586 16.1229C 5.19776 12.0368 4.33535 6.17354 0.21434 1.44418C -0.101609 1.08152 -0.064014 0.530505 0.299024 0.214556C 0.662062 -0.102153 1.21156 -0.0634191 1.52864 0.298859C 6.00434 5.4357 6.94156 11.7399 6.93966 16.1244C 6.9389 16.6052 6.5489 16.9956 6.06776 16.9956Z"/>
<path id="path13_fill" fill-rule="evenodd" d="M 6.18313 23.3039C 6.14782 23.3039 6.1125 23.3012 6.07756 23.2971C 5.59946 23.2393 5.25883 22.8053 5.31693 22.3276C 5.75895 18.6668 5.70465 7.7787 0.213132 1.44224C -0.102438 1.07844 -0.0629439 0.527431 0.300854 0.212621C 0.665031 -0.102949 1.21642 -0.0619364 1.52971 0.300342C 8.64769 8.51389 7.06376 22.3971 7.04668 22.5364C 6.99351 22.9792 6.61794 23.3039 6.18313 23.3039Z"/>
<path id="path14_fill" fill-rule="evenodd" d="M 1.02577 23.3038C 0.590961 23.3038 0.215392 22.9795 0.162227 22.5367C 0.145138 22.3973 -1.44144 8.51566 5.67919 0.300598C 5.99324 -0.0624402 6.54387 -0.102693 6.90805 0.212876C 7.27185 0.527686 7.31134 1.0787 6.99577 1.4425C 1.50235 7.78009 1.44957 18.6671 1.89197 22.3278C 1.95008 22.8055 1.60944 23.2396 1.13134 23.2969C 1.0964 23.3015 1.06109 23.3038 1.02577 23.3038Z"/>
<path id="path15_fill" fill-rule="evenodd" d="M 3.42418 1.86759L 0.934177 1.86759C 0.418481 1.86759 0 1.44911 0 0.933797C 0 0.418481 0.418481 0 0.934177 0L 3.42418 0C 3.93949 0 4.35797 0.418481 4.35797 0.933797C 4.35797 1.44911 3.93949 1.86759 3.42418 1.86759Z"/>
<path id="path16_fill" fill-rule="evenodd" d="M 7.72781 4.79167C 7.5049 4.79167 7.28161 4.70661 7.11148 4.53648C 5.63845 3.06268 1.97351 2.00623 0.685028 1.72332C 0.214902 1.62041 -0.0828198 1.1556 0.0204714 0.685469C 0.123383 0.215723 0.586294 -0.0838978 1.05794 0.0209124C 1.26718 0.0668617 6.20731 1.16699 8.34452 3.30344C 8.68515 3.64408 8.68515 4.19623 8.34452 4.53648C 8.17439 4.70661 7.9511 4.79167 7.72781 4.79167Z"/>
<path id="path17_fill" fill-rule="evenodd" d="M 0.933797 8.71519C 0.418101 8.71519 0 8.29671 0 7.78139L 0 0.933797C 0 0.417722 0.418101 0 0.933797 0C 1.44949 0 1.86759 0.417722 1.86759 0.933797L 1.86759 7.78139C 1.86759 8.29671 1.44949 8.71519 0.933797 8.71519Z"/>
<path id="path18_fill" fill-rule="evenodd" d="M 0.933797 8.09316C 0.418481 8.09316 0 7.67468 0 7.15937L 0 0.933797C 0 0.418481 0.418481 0 0.933797 0C 1.44911 0 1.86759 0.418481 1.86759 0.933797L 1.86759 7.15937C 1.86759 7.67468 1.44911 8.09316 0.933797 8.09316Z"/>
<path id="path19_fill" fill-rule="evenodd" d="M 0.933797 6.84797C 0.418101 6.84797 0 6.42949 0 5.91418L 0 0.933797C 0 0.418101 0.418101 0 0.933797 0C 1.44949 0 1.86759 0.418101 1.86759 0.933797L 1.86759 5.91418C 1.86759 6.42949 1.44949 6.84797 0.933797 6.84797Z"/>
<path id="path20_fill" fill-rule="evenodd" d="M 0.933797 7.47076C 0.418481 7.47076 0 7.05228 0 6.53696L 0 0.933797C 0 0.418481 0.418481 0 0.933797 0C 1.44911 0 1.86759 0.418481 1.86759 0.933797L 1.86759 6.53696C 1.86759 7.05228 1.44911 7.47076 0.933797 7.47076Z"/>
<path id="path21_fill" fill-rule="evenodd" d="M 0.933797 3.73519C 0.418481 3.73519 0 3.31671 0 2.80139L 0 0.933797C 0 0.418481 0.418481 0 0.933797 0C 1.44911 0 1.86759 0.418481 1.86759 0.933797L 1.86759 2.80139C 1.86759 3.31671 1.44911 3.73519 0.933797 3.73519Z"/>
<path id="path22_fill" fill-rule="evenodd" d="M 0.933797 3.73519C 0.418481 3.73519 0 3.31671 0 2.80139L 0 0.933797C 0 0.418481 0.418481 0 0.933797 0C 1.44949 0 1.86759 0.418481 1.86759 0.933797L 1.86759 2.80139C 1.86759 3.31671 1.44949 3.73519 0.933797 3.73519Z"/>
</defs>
</svg>
