<svg width="80" height="64" viewBox="0 0 80 64" version="1.1" xmlns="http://www.w3.org/2000/svg" xmlns:xlink="http://www.w3.org/1999/xlink">
<title>Page 1</title>
<desc>Created using Figma</desc>
<g id="Canvas" transform="translate(-5196 -1063)">
<g id="Page 1">
<g id="Fill 1">
<use xlink:href="#path0_fill" transform="translate(5225.05 1064.5)" fill="#A1C4C2"/>
</g>
<g id="Group 5">
<g id="Fill 3">
<use xlink:href="#path1_fill" transform="translate(5224.02 1063.45)" fill="#263357"/>
</g>
</g>
<g id="Fill 6">
<use xlink:href="#path2_fill" transform="translate(5242.05 1065.71)" fill="#2E75DA"/>
</g>
<g id="Fill 8">
<use xlink:href="#path3_fill" transform="translate(5197.04 1104.07)" fill="#00A37E"/>
</g>
<g id="Fill 10">
<use xlink:href="#path4_fill" transform="translate(5196 1103.02)" fill="#263357"/>
</g>
<g id="Fill 11">
<use xlink:href="#path5_fill" transform="translate(5207.4 1088.72)" fill="#25CE9E"/>
</g>
<g id="Fill 12">
<use xlink:href="#path6_fill" transform="translate(5206.36 1087.68)" fill="#263357"/>
</g>
<g id="Fill 13">
<use xlink:href="#path7_fill" transform="translate(5207.02 1092.28)" fill="#263357"/>
</g>
<g id="Fill 14">
<use xlink:href="#path8_fill" transform="translate(5207.78 1102.64)" fill="#263357"/>
</g>
<g id="Fill 15">
<use xlink:href="#path8_fill" transform="translate(5207.78 1097.65)" fill="#263357"/>
</g>
<g id="Fill 16">
<use xlink:href="#path9_fill" transform="translate(5207.78 1107.63)" fill="#263357"/>
</g>
<g id="Fill 17">
<use xlink:href="#path10_fill" transform="translate(5196.66 1107.63)" fill="#263357"/>
</g>
<g id="Fill 18">
<use xlink:href="#path11_fill" transform="translate(5198.19 1113)" fill="#263357"/>
</g>
<g id="Fill 19">
<use xlink:href="#path12_fill" transform="translate(5252.55 1108.04)" fill="#00A37E"/>
</g>
<g id="Fill 20">
<use xlink:href="#path13_fill" transform="translate(5251.8 1106.55)" fill="#263357"/>
</g>
<g id="Fill 21">
<use xlink:href="#path14_fill" transform="translate(5241.37 1088.67)" fill="#25CE9E"/>
</g>
<g id="Fill 22">
<use xlink:href="#path15_fill" transform="translate(5240.62 1087.18)" fill="#263357"/>
</g>
<g id="Fill 23">
<use xlink:href="#path9_fill" transform="translate(5252.66 1091.52)" fill="#263357"/>
</g>
<g id="Fill 24">
<use xlink:href="#path16_fill" transform="translate(5254.97 1101.87)" fill="#263357"/>
</g>
<g id="Fill 25">
<use xlink:href="#path16_fill" transform="translate(5254.97 1096.69)" fill="#263357"/>
</g>
<g id="Fill 26">
<use xlink:href="#path10_fill" transform="translate(5251.9 1107.05)" fill="#263357"/>
</g>
<g id="Fill 27">
<use xlink:href="#path17_fill" transform="translate(5249.34 1112.23)" fill="#263357"/>
</g>
<g id="Fill 28">
<use xlink:href="#path18_fill" transform="translate(5215.07 1074.11)" fill="#D5EDEA"/>
</g>
<g id="Fill 29">
<use xlink:href="#path19_fill" transform="translate(5214.03 1073.06)" fill="#263357"/>
</g>
<g id="Fill 30">
<use xlink:href="#path20_fill" transform="translate(5241.75 1075.35)" fill="#A1C4C2"/>
</g>
<g id="Fill 31">
<use xlink:href="#path21_fill" transform="translate(5225.72 1074.51)" fill="#FABF4D"/>
</g>
<g id="Fill 32">
<use xlink:href="#path22_fill" transform="translate(5224.98 1073.02)" fill="#263357"/>
</g>
<g id="Fill 33">
<use xlink:href="#path23_fill" transform="translate(5248.17 1093.21)" fill="#263357"/>
</g>
<g id="Fill 34">
<use xlink:href="#path24_fill" transform="translate(5247.27 1090.11)" fill="#263357"/>
</g>
<g id="Fill 35">
<use xlink:href="#path25_fill" transform="translate(5231.87 1069.84)" fill="#263357"/>
</g>
<g id="Fill 36">
<use xlink:href="#path26_fill" transform="translate(5238.96 1070.61)" fill="#263357"/>
</g>
</g>
</g>
<defs>
<path id="path0_fill" fill-rule="evenodd" d="M 20.2632 0.0597418C 18.2377 0.0597418 18.2377 1.59383 16.2123 1.59383C 14.1886 1.59383 14.1886 0.0597418 12.1641 0.0597418C 10.1382 0.0597418 10.1382 1.59383 8.11091 1.59383C 6.08273 1.59383 5.79818 -0.441622 3.84364 0.0879236C 2.32636 0.499287 0.885909 1.40247 0 1.97747C 0.295 3.41611 2.18636 10.5125 4.72682 10.5125L 18.6414 10.4166C 21.1827 10.4166 21.6677 9.13792 23.2423 5.20747L 24.3255 2.74474C 23.7341 2.07338 22.0386 0.0597418 20.2632 0.0597418Z"/>
<path id="path1_fill" fill-rule="evenodd" d="M 2.20117 3.50686C 2.93844 6.50322 4.62344 10.506 5.74572 10.5128L 19.6553 10.4169C 21.4044 10.4169 21.6725 9.9155 23.2453 5.98822L 23.2953 5.86322L 24.1225 3.98232C 23.4584 3.26504 22.2898 2.14641 21.2848 2.14641C 20.6225 2.14641 20.3471 2.3555 19.8898 2.70186C 19.3444 3.11504 18.5975 3.6805 17.2339 3.6805C 15.8716 3.6805 15.1253 3.11504 14.5798 2.70186C 14.123 2.3555 13.8471 2.14641 13.1857 2.14641C 12.5234 2.14641 12.2471 2.3555 11.7894 2.70186C 11.2444 3.11504 10.4966 3.6805 9.13254 3.6805C 7.82344 3.6805 7.02254 3.05231 6.43754 2.59322C 5.85799 2.13822 5.6439 2.00095 5.13799 2.13822C 4.04254 2.4355 2.9589 3.03913 2.20117 3.50686ZM 5.74909 12.5991C 1.96773 12.5991 0.0786364 3.61318 0 3.23091L 0.454091 2.14591C 1.63091 1.38227 3.04273 0.544545 4.59273 0.124545C 4.89682 0.0418182 5.195 0 5.47909 0C 6.51364 0 7.18591 0.527727 7.72591 0.951818C 8.24955 1.36227 8.57227 1.59409 9.13273 1.59409C 9.79636 1.59409 10.0727 1.38545 10.5305 1.03864C 11.0755 0.625455 11.8227 0.06 13.1859 0.06C 14.5486 0.06 15.2955 0.625909 15.8405 1.03909C 16.2977 1.38545 16.5732 1.59409 17.2341 1.59409C 17.8959 1.59409 18.1727 1.38545 18.63 1.03864C 19.1755 0.625909 19.9218 0.06 21.285 0.06C 23.4673 0.06 25.285 2.13409 26.0609 3.02L 26.1305 3.09909L 26.3018 4.20773L 25.1827 6.76409C 23.6041 10.7045 22.8836 12.5032 19.6632 12.5032L 5.74909 12.5991Z"/>
<path id="path2_fill" fill-rule="evenodd" d="M 1.62727 8.05545C 3.24136 8.05545 3.50182 7.72909 5.11818 3.69409L 5.16818 3.56909L 5.96773 1.75C 5.30773 1.04409 4.19727 0 3.25727 0C 2.63 0 2.37864 0.189545 1.92227 0.533182C 1.74455 0.668182 1.54318 0.819091 1.30682 0.961818L 2.55727 1.91818L 1.66136 4.47545C 1.08273 5.91909 0.535 7.53318 0 8.43909L 1.62727 8.05545Z"/>
<path id="path3_fill" fill-rule="evenodd" d="M 0 14.5764L 21.4814 14.5764L 21.4814 0L 0 0L 0 14.5764Z"/>
<path id="path4_fill" fill-rule="evenodd" d="M 2.0874 14.5763L 21.4819 14.5763L 21.4819 2.0863L 2.0874 2.0863L 2.0874 14.5763ZM 22.525 16.6627L 1.04364 16.6627C 0.467273 16.6627 0 16.1959 0 15.6195L 0 1.04318C 0 0.466818 0.467273 0 1.04364 0L 22.525 0C 23.1014 0 23.5682 0.466818 23.5682 1.04318L 23.5682 15.6195C 23.5682 16.1959 23.1014 16.6627 22.525 16.6627Z"/>
<path id="path5_fill" fill-rule="evenodd" d="M 0 29.92L 24.5495 29.92L 24.5495 0L 0 0L 0 29.92Z"/>
<path id="path6_fill" fill-rule="evenodd" d="M 2.0874 29.9199L 24.5497 29.9199L 24.5497 2.0863L 2.0874 2.0863L 2.0874 29.9199ZM 25.5932 32.0064L 1.04364 32.0064C 0.466818 32.0064 0 31.5395 0 30.9632L 0 1.04318C 0 0.466364 0.466818 0 1.04364 0L 25.5932 0C 26.1691 0 26.6368 0.466364 26.6368 1.04318L 26.6368 30.9632C 26.6368 31.5395 26.1691 32.0064 25.5932 32.0064Z"/>
<path id="path7_fill" fill-rule="evenodd" d="M 0 2.08636L 13.8086 2.08636L 13.8086 0L 0 0L 0 2.08636Z"/>
<path id="path8_fill" fill-rule="evenodd" d="M 0 2.08636L 10.7405 2.08636L 10.7405 0L 0 0L 0 2.08636Z"/>
<path id="path9_fill" fill-rule="evenodd" d="M 0 2.08636L 13.8091 2.08636L 13.8091 0L 0 0L 0 2.08636Z"/>
<path id="path10_fill" fill-rule="evenodd" d="M 0 2.08636L 13.8095 2.08636L 13.8095 0L 0 0L 0 2.08636Z"/>
<path id="path11_fill" fill-rule="evenodd" d="M 0 2.08636L 24.55 2.08636L 24.55 0L 0 0L 0 2.08636Z"/>
<path id="path12_fill" fill-rule="evenodd" d="M 0 10.4323L 21.6095 10.4323L 21.6095 0L 0 0L 0 10.4323Z"/>
<path id="path13_fill" fill-rule="evenodd" d="M 2.23535 10.4323L 21.6094 10.4323L 21.6094 2.23547L 2.23535 2.23547L 2.23535 10.4323ZM 22.7273 12.6677L 1.11773 12.6677C 0.500909 12.6677 0 12.1673 0 11.55L 0 1.11773C 0 0.500455 0.500909 0 1.11773 0L 22.7273 0C 23.3445 0 23.845 0.500455 23.845 1.11773L 23.845 11.55C 23.845 12.1673 23.3445 12.6677 22.7273 12.6677Z"/>
<path id="path14_fill" fill-rule="evenodd" d="M 0 29.8064L 24.5905 29.8064L 24.5905 0L 0 0L 0 29.8064Z"/>
<path id="path15_fill" fill-rule="evenodd" d="M 2.23535 29.8064L 24.5899 29.8064L 24.5899 2.23547L 2.23535 2.23547L 2.23535 29.8064ZM 25.7073 32.0418L 1.11773 32.0418C 0.500455 32.0418 0 31.5414 0 30.9241L 0 1.11773C 0 0.500455 0.500455 0 1.11773 0L 25.7073 0C 26.325 0 26.825 0.500455 26.825 1.11773L 26.825 30.9241C 26.825 31.5414 26.325 32.0418 25.7073 32.0418Z"/>
<path id="path16_fill" fill-rule="evenodd" d="M 0 2.08636L 10.7409 2.08636L 10.7409 0L 0 0L 0 2.08636Z"/>
<path id="path17_fill" fill-rule="evenodd" d="M 0 2.08636L 24.6773 2.08636L 24.6773 0L 0 0L 0 2.08636Z"/>
<path id="path18_fill" fill-rule="evenodd" d="M 35.3086 12.0773C 34.0118 10.7809 32.6059 9.50273 31.9668 6.30591C 31.7518 5.23 31.2968 3.17546 30.8682 1.26682C 30.3623 -0.981814 12.8909 0.448186 12.8909 0.448186L 12.0205 5.28319C 11.5391 7.21137 10.3573 10.3973 7.92045 12.6786C 3.08136 16.7132 0 22.785 0 29.5773C 0 41.7232 9.84636 51.5695 21.9932 51.5695C 34.1395 51.5695 43.9864 41.7232 43.9864 29.5773C 43.9864 22.4373 40.5809 16.0946 35.3086 12.0773Z"/>
<path id="path19_fill" fill-rule="evenodd" d="M 14.8174 2.47088L 14.0901 6.51134C 13.7056 8.06452 12.5351 11.8082 9.67691 14.4836C 4.83691 18.5209 2.08691 24.3877 2.08691 30.6204C 2.08691 42.1722 11.4846 51.57 23.0365 51.57C 34.5887 51.57 43.986 42.1722 43.986 30.6204C 43.986 24.03 40.9733 17.9541 35.7192 13.9504L 35.441 13.6854C 34.1374 12.3882 32.6596 10.9182 31.9869 7.55406C 31.8151 6.68997 31.461 5.06634 30.9356 2.72634C 30.6187 2.55816 29.2851 2.08679 24.3178 2.08679C 20.5996 2.08679 16.5087 2.34906 14.8174 2.47088ZM 23.0364 53.6564C 10.3341 53.6564 0 43.3227 0 30.6205C 0 23.7673 3.02364 17.3159 8.29545 12.9209C 10.7036 10.6645 11.725 7.38 12.0514 6.07409L 12.9073 1.30636L 13.8486 0.451818C 13.9041 0.447273 19.4227 0 24.3177 0C 31.0982 0 32.6405 0.796364 32.9295 2.08182C 33.4814 4.53864 33.8523 6.24182 34.0332 7.14455C 34.5814 9.88682 35.7136 11.0136 36.9118 12.2064L 37.0395 12.3332C 42.7814 16.7355 46.0732 23.3968 46.0732 30.6205C 46.0732 43.3227 35.7391 53.6564 23.0364 53.6564Z"/>
<path id="path20_fill" fill-rule="evenodd" d="M 16.1623 28.3309C 16.1623 21.7736 13.1645 15.7286 7.93818 11.7464L 7.64818 11.4714C 6.33455 10.1636 4.84455 8.68136 4.165 5.285C 3.99409 4.43 3.64455 2.82409 3.12636 0.510909C 2.86955 0.39 2.10136 0.138182 0 0C 0.523636 2.33545 0.963182 3.48273 1.13727 4.35636C 1.67909 7.06591 2.25227 9.21727 3.43864 10.3982L 4.87727 12.0282C 10.6414 16.4505 13.0936 21.0755 13.0936 28.3309C 13.0936 36.5977 8.71864 43.9591 2.05591 48.0559C 10.2527 45.2495 16.1623 37.4677 16.1623 28.3309Z"/>
<path id="path21_fill" fill-rule="evenodd" d="M 22.355 2.23545C 22.355 3.47 21.3541 4.47091 20.1191 4.47091L 2.23545 4.47091C 1.00091 4.47091 0 3.47 0 2.23545C 0 1.00091 1.00091 0 2.23545 0L 20.1191 0C 21.3541 0 22.355 1.00091 22.355 2.23545Z"/>
<path id="path22_fill" fill-rule="evenodd" d="M 3.35308 2.23547C 2.73717 2.23547 2.23535 2.73684 2.23535 3.3532C 2.23535 3.96956 2.73717 4.47093 3.35308 4.47093L 21.2372 4.47093C 21.8531 4.47093 22.3549 3.96956 22.3549 3.3532C 22.3549 2.73684 21.8531 2.23547 21.2372 2.23547L 3.35308 2.23547ZM 21.2373 6.70636L 3.35318 6.70636C 1.50455 6.70636 0 5.20227 0 3.35318C 0 1.50409 1.50455 0 3.35318 0L 21.2373 0C 23.0859 0 24.5905 1.50409 24.5905 3.35318C 24.5905 5.20227 23.0859 6.70636 21.2373 6.70636Z"/>
<path id="path23_fill" fill-rule="evenodd" d="M 1.04315 23.4089C 0.778154 23.4089 0.514063 23.3094 0.311336 23.1089C -0.0995732 22.7044 -0.104119 22.0439 0.299972 21.6334C 2.12724 19.7798 3.48225 17.4598 4.21861 14.9239C 5.55406 10.3289 4.78679 5.48663 2.11406 1.63799C 1.78634 1.16526 1.90361 0.51481 2.37634 0.186629C 2.85179 -0.142462 3.49952 -0.024735 3.82861 0.448447C 6.86134 4.81572 7.73452 10.3039 6.22315 15.5057C 5.38997 18.3734 3.85543 20.9984 1.78634 23.098C 1.5827 23.3053 1.3127 23.4089 1.04315 23.4089Z"/>
<path id="path24_fill" fill-rule="evenodd" d="M 1.6252 2.59864C 1.37201 2.59864 1.11838 2.50728 0.917014 2.32228C 0.74156 2.15864 0.56156 1.99955 0.376105 1.84546C -0.0675312 1.47683 -0.126622 0.818645 0.241105 0.375918C 0.609742 -0.0668096 1.26656 -0.127264 1.7102 0.241372C 1.92383 0.419099 2.12974 0.601372 2.33383 0.788645C 2.75611 1.18001 2.78247 1.84001 2.39201 2.26319C 2.18611 2.48546 1.90611 2.59864 1.6252 2.59864Z"/>
<path id="path25_fill" fill-rule="evenodd" d="M 1.61806 4.00541C 1.17034 4.00541 0.755337 3.7136 0.619883 3.26178L 0.0444282 1.34405C -0.121481 0.792233 0.191701 0.210415 0.743519 0.0449602C 1.29125 -0.122313 1.87625 0.191778 2.04261 0.744506L 2.61806 2.66223C 2.78397 3.2136 2.47034 3.79541 1.91852 3.96087C 1.81897 3.99132 1.71806 4.00541 1.61806 4.00541Z"/>
<path id="path26_fill" fill-rule="evenodd" d="M 1.04503 3.81259C 1.00639 3.81259 0.966847 3.81077 0.927302 3.80623C 0.355484 3.74259 -0.0567889 3.22668 0.00639292 2.65395L 0.198666 0.928045C 0.262302 0.355772 0.782302 -0.0560461 1.35139 0.0062266C 1.92321 0.0703175 2.33594 0.585772 2.2723 1.15895L 2.08003 2.88486C 2.02048 3.41804 1.56867 3.81259 1.04503 3.81259Z"/>
</defs>
</svg>
