<svg width="70" height="57" viewBox="0 0 70 57" version="1.1" xmlns="http://www.w3.org/2000/svg" xmlns:xlink="http://www.w3.org/1999/xlink">
<title>Page 1</title>
<desc>Created using Figma</desc>
<g id="Canvas" transform="translate(-4972 -863)">
<g id="Page 1">
<g id="Fill 3">
<use xlink:href="#path0_fill" transform="translate(5005.16 902.421)" fill="#61C4F2"/>
</g>
<g id="Fill 9">
<use xlink:href="#path1_fill" transform="translate(5018.05 874.789)" fill="#61C4F2"/>
</g>
<g id="Fill 10">
<use xlink:href="#path2_fill" transform="translate(5019.89 893.211)" fill="#FABF4D"/>
</g>
<g id="Fill 11">
<use xlink:href="#path2_fill" transform="translate(5019.89 897.816)" fill="#FABF4D"/>
</g>
<g id="Fill 13">
<use xlink:href="#path3_fill" transform="translate(5029.91 917.043)" fill="#263357"/>
</g>
<g id="Fill 14">
<use xlink:href="#path4_fill" transform="translate(4980.29 917.158)" fill="#263357"/>
</g>
<g id="Fill 15">
<use xlink:href="#path5_fill" transform="translate(4983.97 867.421)" fill="#263357"/>
</g>
<g id="Fill 16">
<use xlink:href="#path6_fill" transform="translate(4989.5 872.025)" fill="#263357"/>
</g>
<g id="Fill 17">
<use xlink:href="#path7_fill" transform="translate(5018.05 879.395)" fill="#263357"/>
</g>
<g id="Fill 18">
<use xlink:href="#path8_fill" transform="translate(4995.95 889.526)" fill="#263357"/>
</g>
<g id="Fill 19">
<use xlink:href="#path9_fill" transform="translate(4995.95 893.211)" fill="#263357"/>
</g>
<g id="Fill 20">
<use xlink:href="#path10_fill" transform="translate(5006.08 893.211)" fill="#263357"/>
</g>
<g id="Fill 22">
<use xlink:href="#path11_fill" transform="translate(4972 863.737)" fill="#263357"/>
</g>
<g id="Fill 23">
<use xlink:href="#path12_fill" transform="translate(5030.95 897.816)" fill="#263357"/>
</g>
<g id="Fill 25">
<use xlink:href="#path13_fill" transform="translate(4989.5 870.184)" fill="#25CE9E"/>
</g>
</g>
</g>
<defs>
<path id="path0_fill" fill-rule="evenodd" d="M 3.68421 0L 3.68421 3.68421C 3.68421 4.69737 2.85526 5.52632 1.84211 5.52632C 0.828947 5.52632 0 4.69737 0 3.68421L 0 0L 3.68421 0Z"/>
<path id="path1_fill" fill-rule="evenodd" d="M 7.36842 1.84211L 0.921053 1.84211C 0.412632 1.84211 0 1.42947 0 0.921053C 0 0.412632 0.412632 0 0.921053 0L 7.36842 0C 7.87684 0 8.28947 0.412632 8.28947 0.921053C 8.28947 1.42947 7.87684 1.84211 7.36842 1.84211Z"/>
<path id="path2_fill" fill-rule="evenodd" d="M 0 2.76316L 14.7368 2.76316L 14.7368 0L 0 0L 0 2.76316Z"/>
<path id="path3_fill" fill-rule="evenodd" d="M 1.03618 0C 0.465132 0 0 0.465132 0 1.03618C 0 1.60724 0.465132 2.07237 1.03618 2.07237C 1.60724 2.07237 2.07237 1.60724 2.07237 1.03618C 2.07237 0.465132 1.60724 0 1.03618 0Z"/>
<path id="path4_fill" fill-rule="evenodd" d="M 47.8947 0L 0.921053 0C 0.412632 0 0 0.412632 0 0.921053C 0 1.42947 0.412632 1.84211 0.921053 1.84211L 47.8947 1.84211C 48.4032 1.84211 48.8158 1.42947 48.8158 0.921053C 48.8158 0.412632 48.4032 0 47.8947 0Z"/>
<path id="path5_fill" fill-rule="evenodd" d="M 46.0526 22.1053L 46.0526 0.921053C 46.0526 0.414474 45.6382 0 45.1316 0L 0.921053 0C 0.414474 0 0 0.414474 0 0.921053L 0 31.3158C 0 31.8224 0.414474 32.2368 0.921053 32.2368L 32.2368 32.2368L 32.2368 30.3947L 1.84211 30.3947L 1.84211 1.84211L 44.2105 1.84211L 44.2105 22.1053L 46.0526 22.1053Z"/>
<path id="path6_fill" fill-rule="evenodd" d="M 12.5321 13.7424C 12.7624 13.8418 13.0221 13.8414 13.2528 13.7447C 13.4836 13.647 13.6645 13.4605 13.7544 13.2266L 17.8116 2.6773L 23.2545 8.89717C 23.5889 9.2794 24.1705 9.31855 24.5542 8.98375C 24.9369 8.64848 24.9755 8.0673 24.6403 7.68414L 18.1929 0.315719C 17.9811 0.0725613 17.6555 -0.0444124 17.3391 0.0154561C 17.0213 0.0716403 16.7561 0.29039 16.6405 0.591574L 12.3788 11.6728L 6.81007 9.28631C 6.38731 9.10394 5.89455 9.26375 5.65784 9.65888L 0.131522 18.8694C -0.130517 19.3055 0.0113247 19.8715 0.447443 20.1331C 0.595733 20.222 0.759219 20.2643 0.920404 20.2643C 1.2331 20.2643 1.53797 20.105 1.71067 19.8172L 6.82343 11.296L 12.5321 13.7424Z"/>
<path id="path7_fill" fill-rule="evenodd" d="M 0.921053 0C 0.412632 0 0 0.412632 0 0.921053C 0 1.42947 0.412632 1.84211 0.921053 1.84211L 7.36842 1.84211C 7.87684 1.84211 8.28947 1.42947 8.28947 0.921053C 8.28947 0.412632 7.87684 0 7.36842 0L 0.921053 0Z"/>
<path id="path8_fill" fill-rule="evenodd" d="M 20.2632 0.921053C 20.2632 0.412632 19.8505 0 19.3421 0L 0.921053 0C 0.412632 0 0 0.412632 0 0.921053C 0 1.42947 0.412632 1.84211 0.921053 1.84211L 19.3421 1.84211C 19.8505 1.84211 20.2632 1.42947 20.2632 0.921053Z"/>
<path id="path9_fill" fill-rule="evenodd" d="M 0.921053 0C 0.412632 0 0 0.412632 0 0.921053C 0 1.42947 0.412632 1.84211 0.921053 1.84211L 8.28947 1.84211C 8.79789 1.84211 9.21053 1.42947 9.21053 0.921053C 9.21053 0.412632 8.79789 0 8.28947 0L 0.921053 0Z"/>
<path id="path10_fill" fill-rule="evenodd" d="M 0.921053 0C 0.412632 0 0 0.412632 0 0.921053C 0 1.42947 0.412632 1.84211 0.921053 1.84211L 6.44737 1.84211C 6.95579 1.84211 7.36842 1.42947 7.36842 0.921053C 7.36842 0.412632 6.95579 0 6.44737 0L 0.921053 0Z"/>
<path id="path11_fill" fill-rule="evenodd" d="M 47.8945 49.7369L 47.8945 47.8947L 47.8945 39.6053L 47.8945 37.7632L 47.8945 29.4737L 62.6314 29.4737L 62.6314 49.7369L 47.8945 49.7369ZM 65.8598 34.079C 67.1272 34.079 68.1578 35.1787 68.1578 36.5304L 68.1578 39.9171C 68.1578 41.2687 67.1272 42.3685 65.8598 42.3685L 64.4736 42.3685L 64.4736 34.079L 65.8598 34.079ZM 6.44727 49.7369L 6.44727 47.8947L 11.3873 47.8947C 11.8962 47.8947 12.3084 47.4821 12.3084 46.9737C 12.3084 46.4653 11.8962 46.0526 11.3873 46.0526L 6.44727 46.0526L 6.44727 44.5053C 6.44727 43.8836 6.95384 43.3724 7.58016 43.3724L 16.367 43.3724C 16.9933 43.3724 17.4999 43.8836 17.4999 44.5053L 17.4999 46.0526L 16.0764 46.0526C 15.568 46.0526 15.1554 46.4653 15.1554 46.9737C 15.1554 47.4821 15.568 47.8947 16.0764 47.8947L 17.4999 47.8947L 17.4999 49.7369L 6.44727 49.7369ZM 29.4369 43.5198L 29.4369 39.6053L 32.2369 39.6053L 32.2369 42.3684C 32.2369 43.8923 33.4762 45.1316 35.0001 45.1316C 36.524 45.1316 37.7632 43.8923 37.7632 42.3684L 37.7632 39.6053L 40.5632 39.6053L 40.5632 43.5198C 40.5632 44.7185 40.805 45.8878 41.2614 46.9737L 28.7388 46.9737C 29.1947 45.8882 29.4369 44.7185 29.4369 43.5198ZM 34.0791 39.6053L 35.9212 39.6053L 35.9212 42.3684C 35.9212 42.8764 35.5081 43.2895 35.0002 43.2895C 34.4922 43.2895 34.0791 42.8764 34.0791 42.3684L 34.0791 39.6053ZM 65.8599 44.2105C 68.1427 44.2105 70 42.2841 70 39.917L 70 36.5303C 70 34.1632 68.1427 32.2368 65.8599 32.2368L 64.4737 32.2368L 64.4737 28.5526C 64.4737 28.0461 64.0592 27.6316 63.5526 27.6316L 46.9737 27.6316C 46.4671 27.6316 46.0526 28.0461 46.0526 28.5526L 46.0526 37.7632L 46.0526 39.6053L 46.0526 46.9737L 46.0526 49.7368L 45.8132 49.7368L 24.1868 49.7368L 23.9474 49.7368L 23.9474 48.8158L 42.7829 48.8158L 44.2105 48.8158L 44.2105 46.9737L 43.3033 46.9737L 43.3024 46.9737C 42.7147 45.9241 42.4053 44.7397 42.4053 43.5197L 42.4053 39.6053L 44.2105 39.6053L 44.2105 37.7632L 28.5158 37.7632L 10.1316 37.7632L 10.1316 1.84211L 59.8684 1.84211L 59.8684 25.7895L 61.7105 25.7895L 61.7105 1.38158C 61.7105 0.62171 61.0888 0 60.3289 0L 9.67105 0C 8.91118 0 8.28947 0.62171 8.28947 1.38158L 8.28947 38.2237C 8.28947 38.9836 8.91118 39.6053 9.67105 39.6053L 27.5947 39.6053L 27.5947 43.5197C 27.5947 44.7397 27.2857 45.9237 26.6981 46.9737L 23.0263 46.9737C 22.5197 46.9737 22.1053 47.3882 22.1053 47.8947L 22.1053 49.7368L 19.3421 49.7368L 19.3421 44.5053C 19.3421 42.8658 18.0066 41.5303 16.3671 41.5303L 7.58026 41.5303C 5.94079 41.5303 4.60526 42.8658 4.60526 44.5053L 4.60526 49.7368L 0.921053 49.7368C 0.414474 49.7368 0 50.1513 0 50.6579C 0 51.1645 0.414474 51.5789 0.921053 51.5789L 5.52632 51.5789L 18.4211 51.5789L 23.0263 51.5789L 24.1868 51.5789L 45.8132 51.5789L 46.9737 51.5789L 63.5526 51.5789L 69.0789 51.5789C 69.5855 51.5789 70 51.1645 70 50.6579C 70 50.1513 69.5855 49.7368 69.0789 49.7368L 64.4737 49.7368L 64.4737 44.2105L 65.8599 44.2105Z"/>
<path id="path12_fill" fill-rule="evenodd" d="M 0.921053 11.0526C 1.42947 11.0526 1.84211 10.64 1.84211 10.1316L 1.84211 0.921053C 1.84211 0.412632 1.42947 0 0.921053 0C 0.412632 0 0 0.412632 0 0.921053L 0 10.1316C 0 10.64 0.412632 11.0526 0.921053 11.0526Z"/>
<path id="path13_fill" fill-rule="evenodd" d="M 0.920199 14.7369C 0.759015 14.7369 0.595528 14.6946 0.447239 14.6057C 0.0111201 14.3437 -0.130261 13.7781 0.131317 13.342L 5.65763 4.13149C 5.78428 3.92057 5.99013 3.76905 6.22915 3.71057C 6.46724 3.65208 6.72053 3.69168 6.93007 3.82109L 18.1011 10.6954L 24.0727 0.456947C 24.3292 0.0180652 24.8924 -0.130685 25.3327 0.125368C 25.772 0.381881 25.9203 0.946026 25.6638 1.38537L 19.2164 12.438C 19.0916 12.6521 18.8858 12.8073 18.6449 12.8672C 18.4041 12.9266 18.1494 12.8879 17.9385 12.7581L 6.75783 5.87826L 1.71092 14.2898C 1.53823 14.5776 1.23336 14.7369 0.920199 14.7369Z"/>
</defs>
</svg>
