<?xml version="1.0" encoding="UTF-8"?>
<svg width="16px" height="16px" viewBox="0 0 16 16" version="1.1" xmlns="http://www.w3.org/2000/svg" xmlns:xlink="http://www.w3.org/1999/xlink">
    <!-- Generator: Sketch 48.1 (47250) - http://www.bohemiancoding.com/sketch -->
    <title>Shape</title>
    <desc>Created with Sketch.</desc>
    <defs></defs>
    <g id="page12" stroke="none" stroke-width="1" fill="none" fill-rule="evenodd" transform="translate(-925.000000, -434.000000)">
        <g id="Group-4" transform="translate(468.000000, 360.000000)" fill="#B9B9B9" fill-rule="nonzero">
            <g id="Group-2-Copy-2" transform="translate(8.000000, 0.000000)">
                <path d="M464.707368,88.2933349 L460.745775,84.3262419 C461.530794,83.2522168 461.999305,81.9321859 461.999305,80.5001523 C461.999305,76.9100682 459.089736,74 455.499652,74 C451.910068,74 449,76.9100682 449,80.5001523 C449,84.0902364 451.910068,87.0003046 455.499652,87.0003046 C456.935186,87.0003046 458.257217,86.5297936 459.332742,85.7412751 L463.292835,89.707368 C463.683344,90.0978772 464.316359,90.0978772 464.706868,89.707368 C465.097377,89.3168589 465.097877,88.683844 464.707368,88.2933349 Z M451.000047,80.5001523 C451.000047,78.0145941 453.014594,76.0000469 455.499652,76.0000469 C457.985211,76.0000469 459.999758,78.0145941 459.999758,80.5001523 C459.999758,82.9857105 457.985211,85.0002577 455.499652,85.0002577 C453.014594,85.0002577 451.000047,82.9857105 451.000047,80.5001523 Z" id="Shape"></path>
            </g>
        </g>
    </g>
</svg>